{"glyphs":{"0":{"ha":947,"x_min":0,"x_max":0,"o":"m 474 -28 b 885 493 772 -28 885 135 b 474 1014 885 851 772 1014 b 63 493 175 1014 63 851 b 474 -28 63 135 175 -28 z m 474 188 b 333 493 361 188 333 267 b 474 799 333 719 361 799 b 614 493 586 799 614 719 b 474 188 614 267 586 188 z "},"1":{"ha":607,"x_min":0,"x_max":0,"o":"m 299 986 b 0 865 222 914 103 865 l 0 643 b 215 694 68 643 149 658 l 215 0 l 475 0 l 475 986 z "},"2":{"ha":892,"x_min":0,"x_max":0,"o":"m 397 194 b 815 715 753 401 815 589 b 439 1014 815 896 681 1014 b 63 669 197 1014 63 894 l 313 669 b 439 819 313 765 358 819 b 565 697 522 819 565 778 b 63 167 565 588 426 429 l 63 0 l 829 0 l 829 194 z "},"3":{"ha":893,"x_min":0,"x_max":0,"o":"m 443 -28 b 844 257 708 -28 844 78 b 692 511 844 382 792 458 b 819 729 776 554 819 619 b 443 1014 819 901 685 1014 b 67 669 201 1014 67 894 l 317 669 b 443 819 317 765 363 819 b 569 697 524 819 569 775 b 443 575 569 619 524 575 l 328 575 l 328 411 l 443 411 b 583 289 533 411 583 367 b 443 167 583 211 533 167 b 303 317 353 167 303 221 l 42 317 b 443 -28 42 88 178 -28 z "},"4":{"ha":910,"x_min":0,"x_max":0,"o":"m 507 0 l 764 0 l 764 183 l 889 183 l 889 367 l 764 367 l 764 986 l 521 986 l 28 311 l 28 183 l 507 183 z m 290 367 l 507 682 l 507 367 z "},"5":{"ha":919,"x_min":0,"x_max":0,"o":"m 528 640 b 336 582 447 640 385 621 l 356 792 l 801 792 l 815 986 l 139 986 l 90 394 l 333 394 b 479 454 368 435 411 454 b 628 317 578 454 628 415 b 474 174 628 219 578 174 b 326 303 379 174 333 215 l 83 303 b 478 -28 83 78 210 -28 b 871 317 744 -28 871 82 b 528 640 871 536 754 640 z "},"6":{"ha":904,"x_min":0,"x_max":0,"o":"m 450 -28 b 842 317 693 -32 842 82 b 522 625 842 519 728 625 b 294 536 418 625 347 596 b 468 814 301 722 350 814 b 611 704 547 814 597 782 l 831 704 b 475 1014 828 911 697 1014 b 63 489 174 1014 63 814 b 450 -28 63 138 176 -22 z m 453 167 b 319 310 364 167 319 222 b 457 446 319 400 368 446 b 596 304 557 446 596 394 b 453 167 596 217 551 167 z "},"7":{"ha":736,"x_min":0,"x_max":0,"o":"m 136 0 l 400 0 b 729 811 400 236 514 614 l 729 986 l 0 986 l 0 792 l 453 792 b 136 0 235 538 136 232 z "},"8":{"ha":969,"x_min":0,"x_max":0,"o":"m 485 -28 b 886 257 750 -28 886 78 b 733 511 886 382 833 458 b 861 729 818 554 861 619 b 485 1014 861 901 726 1014 b 108 729 243 1014 108 901 b 236 511 108 619 151 554 b 83 257 136 458 83 382 b 485 -28 83 78 219 -28 z m 485 575 b 358 697 404 575 358 619 b 485 819 358 775 404 819 b 611 697 565 819 611 775 b 485 575 611 619 565 575 z m 485 167 b 344 289 394 167 344 211 b 485 411 344 367 394 411 b 625 289 575 411 625 367 b 485 167 625 211 575 167 z "},"9":{"ha":904,"x_min":0,"x_max":0,"o":"m 432 -28 b 842 463 715 -28 829 125 b 442 1014 842 824 769 1014 b 63 668 204 1014 63 899 b 431 339 63 460 172 344 b 608 411 506 338 564 361 b 456 182 597 254 560 182 b 307 278 371 182 325 206 l 88 278 b 432 -28 90 74 219 -28 z m 444 533 b 313 674 351 533 313 582 b 444 819 313 764 350 819 b 578 678 532 819 578 767 b 444 533 578 589 539 533 z "},"A":{"ha":999,"x_min":0,"x_max":0,"o":"m 711 0 l 999 0 l 704 986 l 290 986 l 0 0 l 283 0 l 333 188 l 661 188 z m 389 389 l 497 792 l 606 389 z "},"Á":{"ha":999,"x_min":0,"x_max":0,"o":"m 708 1306 l 486 1306 l 396 1060 l 576 1060 z m 711 0 l 999 0 l 704 986 l 290 986 l 0 0 l 283 0 l 333 188 l 661 188 z m 389 389 l 497 792 l 606 389 z "},"Ă":{"ha":999,"x_min":0,"x_max":0,"o":"m 497 1060 b 726 1306 649 1060 726 1143 l 581 1306 b 497 1196 581 1229 556 1196 b 414 1306 439 1196 414 1229 l 268 1306 b 497 1060 268 1143 346 1060 z m 711 0 l 999 0 l 704 986 l 290 986 l 0 0 l 283 0 l 333 188 l 661 188 z m 389 389 l 497 792 l 606 389 z "},"Â":{"ha":999,"x_min":0,"x_max":0,"o":"m 497 1176 l 601 1060 l 726 1060 l 608 1306 l 386 1306 l 268 1060 l 393 1060 z m 711 0 l 999 0 l 704 986 l 290 986 l 0 0 l 283 0 l 333 188 l 661 188 z m 389 389 l 497 792 l 606 389 z "},"Ä":{"ha":999,"x_min":0,"x_max":0,"o":"m 435 1292 l 199 1292 l 199 1101 l 435 1101 z m 796 1292 l 560 1292 l 560 1101 l 796 1101 z m 711 0 l 999 0 l 704 986 l 290 986 l 0 0 l 283 0 l 333 188 l 661 188 z m 389 389 l 497 792 l 606 389 z "},"À":{"ha":999,"x_min":0,"x_max":0,"o":"m 601 1060 l 511 1306 l 289 1306 l 421 1060 z m 711 0 l 999 0 l 704 986 l 290 986 l 0 0 l 283 0 l 333 188 l 661 188 z m 389 389 l 497 792 l 606 389 z "},"Ā":{"ha":999,"x_min":0,"x_max":0,"o":"m 756 1258 l 239 1258 l 239 1114 l 756 1114 z m 711 0 l 999 0 l 704 986 l 290 986 l 0 0 l 283 0 l 333 188 l 661 188 z m 389 389 l 497 792 l 606 389 z "},"Ą":{"ha":999,"x_min":0,"x_max":0,"o":"m 925 -171 b 850 -114 885 -171 850 -156 b 999 0 850 -58 910 -17 l 704 986 l 290 986 l 0 0 l 283 0 l 333 188 l 661 188 l 711 0 l 829 0 b 729 -146 767 -31 729 -81 b 883 -278 729 -232 803 -278 b 1026 -224 933 -278 988 -260 l 1026 -143 b 925 -171 999 -160 960 -171 z m 389 389 l 497 792 l 606 389 z "},"Å":{"ha":999,"x_min":0,"x_max":0,"o":"m 497 1033 b 683 1196 614 1033 683 1096 b 497 1357 683 1296 614 1357 b 310 1196 382 1357 310 1296 b 497 1033 310 1096 382 1033 z m 497 1263 b 558 1196 535 1263 558 1238 b 497 1129 558 1156 535 1129 b 435 1196 458 1129 435 1156 b 497 1263 435 1238 458 1263 z m 711 0 l 999 0 l 704 986 l 290 986 l 0 0 l 283 0 l 333 188 l 661 188 z m 389 389 l 497 792 l 606 389 z "},"Ã":{"ha":999,"x_min":0,"x_max":0,"o":"m 365 1147 b 613 1094 450 1147 518 1094 b 797 1297 722 1094 797 1183 l 700 1297 b 632 1238 694 1263 667 1238 b 383 1290 547 1238 478 1290 b 197 1088 272 1290 197 1201 l 294 1088 b 365 1147 300 1122 331 1147 z m 711 0 l 999 0 l 704 986 l 290 986 l 0 0 l 283 0 l 333 188 l 661 188 z m 389 389 l 497 792 l 606 389 z "},"Æ":{"ha":1399,"x_min":0,"x_max":0,"o":"m 926 215 l 926 394 l 1281 394 l 1281 596 l 926 596 l 926 771 l 1350 771 l 1350 986 l 465 986 l 0 0 l 290 0 l 376 193 l 649 193 l 649 0 l 1364 0 l 1364 215 z m 467 394 l 649 800 l 649 394 z "},"B":{"ha":933,"x_min":0,"x_max":0,"o":"m 718 501 b 871 713 819 538 871 606 b 525 986 871 900 767 986 l 97 986 l 97 0 l 511 0 b 906 261 788 0 906 78 b 718 501 906 392 847 468 z m 600 674 b 497 575 600 604 569 575 l 375 575 l 375 771 l 483 771 b 600 674 565 771 600 742 z m 504 215 l 375 215 l 375 408 l 504 408 b 621 313 586 408 621 379 b 504 215 621 244 586 215 z "},"C":{"ha":1008,"x_min":0,"x_max":0,"o":"m 529 -28 b 981 381 793 -28 947 111 l 685 381 b 515 201 663 256 611 201 b 326 493 385 201 326 289 b 515 785 326 697 385 785 b 685 604 610 785 661 731 l 981 604 b 529 1014 947 875 793 1014 b 35 493 203 1014 35 838 b 529 -28 35 149 203 -28 z "},"Ć":{"ha":1008,"x_min":0,"x_max":0,"o":"m 407 1060 l 588 1060 l 719 1306 l 497 1306 z m 529 -28 b 981 381 793 -28 947 111 l 685 381 b 515 201 663 256 611 201 b 326 493 385 201 326 289 b 515 785 326 697 385 785 b 685 604 610 785 661 731 l 981 604 b 529 1014 947 875 793 1014 b 35 493 203 1014 35 838 b 529 -28 35 149 203 -28 z "},"Č":{"ha":1008,"x_min":0,"x_max":0,"o":"m 397 1060 l 619 1060 l 738 1306 l 613 1306 l 508 1189 l 404 1306 l 279 1306 z m 529 -28 b 981 381 793 -28 947 111 l 685 381 b 515 201 663 256 611 201 b 326 493 385 201 326 289 b 515 785 326 697 385 785 b 685 604 610 785 661 731 l 981 604 b 529 1014 947 875 793 1014 b 35 493 203 1014 35 838 b 529 -28 35 149 203 -28 z "},"Ç":{"ha":1008,"x_min":0,"x_max":0,"o":"m 515 201 b 326 493 385 201 326 289 b 515 785 326 697 385 785 b 685 604 610 785 661 731 l 981 604 b 529 1014 947 875 793 1014 b 35 493 203 1014 35 838 b 461 -25 35 174 179 -1 l 428 -117 l 447 -135 b 557 -181 525 -137 557 -158 b 511 -207 557 -203 538 -207 b 393 -169 471 -207 419 -192 l 363 -250 b 515 -300 397 -283 457 -300 b 674 -178 596 -300 674 -257 b 538 -61 674 -118 625 -75 l 560 -28 b 981 381 806 -17 949 122 l 685 381 b 515 201 663 256 611 201 z "},"Ċ":{"ha":1008,"x_min":0,"x_max":0,"o":"m 376 1088 l 640 1088 l 640 1306 l 376 1306 z m 529 -28 b 981 381 793 -28 947 111 l 685 381 b 515 201 663 256 611 201 b 326 493 385 201 326 289 b 515 785 326 697 385 785 b 685 604 610 785 661 731 l 981 604 b 529 1014 947 875 793 1014 b 35 493 203 1014 35 838 b 529 -28 35 149 203 -28 z "},"D":{"ha":1053,"x_min":0,"x_max":0,"o":"m 521 986 l 97 986 l 97 0 l 507 0 b 1018 493 844 0 1018 172 b 521 986 1018 814 849 986 z m 521 236 l 375 236 l 375 750 l 521 750 b 713 493 654 750 713 672 b 521 236 713 314 654 236 z "},"Ð":{"ha":1053,"x_min":0,"x_max":0,"o":"m 521 986 l 97 986 l 97 565 l -32 565 l -32 421 l 97 421 l 97 0 l 507 0 b 1018 493 844 0 1018 172 b 521 986 1018 814 849 986 z m 521 236 l 375 236 l 375 421 l 551 421 l 551 565 l 375 565 l 375 750 l 521 750 b 713 493 654 750 713 672 b 521 236 713 314 654 236 z "},"Ď":{"ha":1053,"x_min":0,"x_max":0,"o":"m 638 1060 l 756 1306 l 631 1306 l 526 1189 l 422 1306 l 297 1306 l 415 1060 z m 521 986 l 97 986 l 97 0 l 507 0 b 1018 493 844 0 1018 172 b 521 986 1018 814 849 986 z m 521 236 l 375 236 l 375 750 l 521 750 b 713 493 654 750 713 672 b 521 236 713 314 654 236 z "},"Đ":{"ha":1053,"x_min":0,"x_max":0,"o":"m 521 986 l 97 986 l 97 565 l -32 565 l -32 421 l 97 421 l 97 0 l 507 0 b 1018 493 844 0 1018 172 b 521 986 1018 814 849 986 z m 521 236 l 375 236 l 375 421 l 551 421 l 551 565 l 375 565 l 375 750 l 521 750 b 713 493 654 750 713 672 b 521 236 713 314 654 236 z "},"E":{"ha":847,"x_min":0,"x_max":0,"o":"m 97 0 l 813 0 l 813 215 l 375 215 l 375 394 l 729 394 l 729 596 l 375 596 l 375 771 l 799 771 l 799 986 l 97 986 z "},"É":{"ha":847,"x_min":0,"x_max":0,"o":"m 347 1060 l 528 1060 l 660 1306 l 438 1306 z m 97 0 l 813 0 l 813 215 l 375 215 l 375 394 l 729 394 l 729 596 l 375 596 l 375 771 l 799 771 l 799 986 l 97 986 z "},"Ě":{"ha":847,"x_min":0,"x_max":0,"o":"m 338 1060 l 560 1060 l 678 1306 l 553 1306 l 449 1189 l 344 1306 l 219 1306 z m 97 0 l 813 0 l 813 215 l 375 215 l 375 394 l 729 394 l 729 596 l 375 596 l 375 771 l 799 771 l 799 986 l 97 986 z "},"Ê":{"ha":847,"x_min":0,"x_max":0,"o":"m 219 1060 l 344 1060 l 449 1176 l 553 1060 l 678 1060 l 560 1306 l 338 1306 z m 97 0 l 813 0 l 813 215 l 375 215 l 375 394 l 729 394 l 729 596 l 375 596 l 375 771 l 799 771 l 799 986 l 97 986 z "},"Ë":{"ha":847,"x_min":0,"x_max":0,"o":"m 150 1101 l 386 1101 l 386 1292 l 150 1292 z m 511 1101 l 747 1101 l 747 1292 l 511 1292 z m 97 0 l 813 0 l 813 215 l 375 215 l 375 394 l 729 394 l 729 596 l 375 596 l 375 771 l 799 771 l 799 986 l 97 986 z "},"Ė":{"ha":847,"x_min":0,"x_max":0,"o":"m 317 1088 l 581 1088 l 581 1306 l 317 1306 z m 97 0 l 813 0 l 813 215 l 375 215 l 375 394 l 729 394 l 729 596 l 375 596 l 375 771 l 799 771 l 799 986 l 97 986 z "},"È":{"ha":847,"x_min":0,"x_max":0,"o":"m 372 1060 l 553 1060 l 463 1306 l 240 1306 z m 97 0 l 813 0 l 813 215 l 375 215 l 375 394 l 729 394 l 729 596 l 375 596 l 375 771 l 799 771 l 799 986 l 97 986 z "},"Ē":{"ha":847,"x_min":0,"x_max":0,"o":"m 190 1114 l 707 1114 l 707 1258 l 190 1258 z m 97 0 l 813 0 l 813 215 l 375 215 l 375 394 l 729 394 l 729 596 l 375 596 l 375 771 l 799 771 l 799 986 l 97 986 z "},"Ę":{"ha":847,"x_min":0,"x_max":0,"o":"m 739 -171 b 664 -114 699 -171 664 -156 b 813 0 664 -58 724 -17 l 813 215 l 375 215 l 375 394 l 729 394 l 729 596 l 375 596 l 375 771 l 799 771 l 799 986 l 97 986 l 97 0 l 643 0 b 543 -146 581 -31 543 -81 b 697 -278 543 -232 617 -278 b 840 -224 747 -278 801 -260 l 840 -143 b 739 -171 813 -160 774 -171 z "},"F":{"ha":799,"x_min":0,"x_max":0,"o":"m 778 771 l 778 986 l 97 986 l 97 0 l 375 0 l 375 353 l 736 353 l 736 554 l 375 554 l 375 771 z "},"G":{"ha":1071,"x_min":0,"x_max":0,"o":"m 513 389 l 693 389 b 522 201 693 271 638 201 b 326 493 383 201 326 279 b 508 785 326 697 383 785 b 671 618 604 785 651 735 l 981 618 b 529 1014 940 879 788 1014 b 35 493 203 1014 35 838 b 488 -28 35 149 203 -28 b 786 147 617 -28 724 39 l 796 -28 l 981 -28 l 981 547 l 513 547 z "},"Ğ":{"ha":1071,"x_min":0,"x_max":0,"o":"m 536 1060 b 765 1306 688 1060 765 1143 l 619 1306 b 536 1196 619 1229 594 1196 b 453 1306 478 1196 453 1229 l 307 1306 b 536 1060 307 1143 385 1060 z m 513 389 l 693 389 b 522 201 693 271 638 201 b 326 493 383 201 326 279 b 508 785 326 697 383 785 b 671 618 604 785 651 735 l 981 618 b 529 1014 940 879 788 1014 b 35 493 203 1014 35 838 b 488 -28 35 149 203 -28 b 786 147 617 -28 724 39 l 796 -28 l 981 -28 l 981 547 l 513 547 z "},"Ģ":{"ha":1071,"x_min":0,"x_max":0,"o":"m 513 389 l 693 389 b 522 201 693 271 638 201 b 326 493 383 201 326 279 b 508 785 326 697 383 785 b 671 618 604 785 651 735 l 981 618 b 529 1014 940 879 788 1014 b 35 493 203 1014 35 838 b 488 -28 35 149 203 -28 b 786 147 617 -28 724 39 l 796 -28 l 981 -28 l 981 547 l 513 547 z m 425 -253 l 501 -253 l 467 -421 l 564 -421 l 647 -197 l 647 -65 l 426 -65 z "},"Ġ":{"ha":1071,"x_min":0,"x_max":0,"o":"m 668 1306 l 404 1306 l 404 1088 l 668 1088 z m 513 389 l 693 389 b 522 201 693 271 638 201 b 326 493 383 201 326 279 b 508 785 326 697 383 785 b 671 618 604 785 651 735 l 981 618 b 529 1014 940 879 788 1014 b 35 493 203 1014 35 838 b 488 -28 35 149 203 -28 b 786 147 617 -28 724 39 l 796 -28 l 981 -28 l 981 547 l 513 547 z "},"H":{"ha":1076,"x_min":0,"x_max":0,"o":"m 701 986 l 701 617 l 375 617 l 375 986 l 97 986 l 97 0 l 375 0 l 375 401 l 701 401 l 701 0 l 979 0 l 979 986 z "},"Ħ":{"ha":1076,"x_min":0,"x_max":0,"o":"m 1076 888 l 979 888 l 979 986 l 701 986 l 701 888 l 375 888 l 375 986 l 97 986 l 97 888 l -28 888 l -28 743 l 97 743 l 97 0 l 375 0 l 375 401 l 701 401 l 701 0 l 979 0 l 979 743 l 1076 743 z m 701 617 l 375 617 l 375 743 l 701 743 z "},"I":{"ha":722,"x_min":0,"x_max":0,"o":"m 667 771 l 667 986 l 56 986 l 56 771 l 226 771 l 226 215 l 56 215 l 56 0 l 667 0 l 667 215 l 496 215 l 496 771 z "},"Í":{"ha":722,"x_min":0,"x_max":0,"o":"m 572 1306 l 350 1306 l 260 1060 l 440 1060 z m 667 771 l 667 986 l 56 986 l 56 771 l 226 771 l 226 215 l 56 215 l 56 0 l 667 0 l 667 215 l 496 215 l 496 771 z "},"Î":{"ha":722,"x_min":0,"x_max":0,"o":"m 361 1176 l 465 1060 l 590 1060 l 472 1306 l 250 1306 l 132 1060 l 257 1060 z m 667 771 l 667 986 l 56 986 l 56 771 l 226 771 l 226 215 l 56 215 l 56 0 l 667 0 l 667 215 l 496 215 l 496 771 z "},"Ï":{"ha":722,"x_min":0,"x_max":0,"o":"m 299 1292 l 63 1292 l 63 1101 l 299 1101 z m 660 1292 l 424 1292 l 424 1101 l 660 1101 z m 667 771 l 667 986 l 56 986 l 56 771 l 226 771 l 226 215 l 56 215 l 56 0 l 667 0 l 667 215 l 496 215 l 496 771 z "},"İ":{"ha":722,"x_min":0,"x_max":0,"o":"m 493 1306 l 229 1306 l 229 1088 l 493 1088 z m 667 771 l 667 986 l 56 986 l 56 771 l 226 771 l 226 215 l 56 215 l 56 0 l 667 0 l 667 215 l 496 215 l 496 771 z "},"Ì":{"ha":722,"x_min":0,"x_max":0,"o":"m 465 1060 l 375 1306 l 153 1306 l 285 1060 z m 667 771 l 667 986 l 56 986 l 56 771 l 226 771 l 226 215 l 56 215 l 56 0 l 667 0 l 667 215 l 496 215 l 496 771 z "},"Ī":{"ha":722,"x_min":0,"x_max":0,"o":"m 619 1258 l 103 1258 l 103 1114 l 619 1114 z m 667 771 l 667 986 l 56 986 l 56 771 l 226 771 l 226 215 l 56 215 l 56 0 l 667 0 l 667 215 l 496 215 l 496 771 z "},"Į":{"ha":722,"x_min":0,"x_max":0,"o":"m 581 -171 b 506 -114 540 -171 506 -156 b 654 0 506 -58 565 -17 l 667 0 l 667 215 l 496 215 l 496 771 l 667 771 l 667 986 l 56 986 l 56 771 l 226 771 l 226 215 l 56 215 l 56 0 l 485 0 b 385 -146 422 -31 385 -81 b 539 -278 385 -232 458 -278 b 682 -224 589 -278 643 -260 l 682 -143 b 581 -171 654 -160 615 -171 z "},"J":{"ha":694,"x_min":0,"x_max":0,"o":"m 611 986 l 83 986 l 83 771 l 333 771 l 333 326 b 196 190 333 228 286 190 b 42 213 144 190 79 199 l 42 14 b 263 -14 83 -3 175 -14 b 611 313 490 -14 611 104 z "},"K":{"ha":1017,"x_min":0,"x_max":0,"o":"m 1017 0 l 640 558 l 1000 986 l 686 986 l 375 572 l 375 986 l 97 986 l 97 0 l 375 0 l 375 243 l 465 350 l 694 0 z "},"Ķ":{"ha":1017,"x_min":0,"x_max":0,"o":"m 640 558 l 1000 986 l 686 986 l 375 572 l 375 986 l 97 986 l 97 0 l 375 0 l 375 243 l 465 350 l 694 0 l 1017 0 z m 404 -253 l 481 -253 l 446 -421 l 543 -421 l 626 -197 l 626 -65 l 406 -65 z "},"L":{"ha":771,"x_min":0,"x_max":0,"o":"m 375 215 l 375 986 l 97 986 l 97 0 l 764 0 l 764 215 z "},"Ĺ":{"ha":771,"x_min":0,"x_max":0,"o":"m 446 1306 l 224 1306 l 133 1060 l 314 1060 z m 375 215 l 375 986 l 97 986 l 97 0 l 764 0 l 764 215 z "},"Ľ":{"ha":833,"x_min":0,"x_max":0,"o":"m 375 986 l 97 986 l 97 0 l 764 0 l 764 215 l 375 215 z m 792 986 l 569 986 l 542 671 l 708 671 z "},"Ļ":{"ha":771,"x_min":0,"x_max":0,"o":"m 375 215 l 375 986 l 97 986 l 97 0 l 764 0 l 764 215 z m 278 -253 l 354 -253 l 319 -421 l 417 -421 l 500 -197 l 500 -65 l 279 -65 z "},"Ł":{"ha":778,"x_min":0,"x_max":0,"o":"m 375 215 l 375 439 l 661 547 l 661 728 l 375 619 l 375 986 l 97 986 l 97 514 l -47 458 l -47 278 l 97 333 l 97 0 l 764 0 l 764 215 z "},"M":{"ha":1419,"x_min":0,"x_max":0,"o":"m 63 0 l 313 0 l 351 786 l 544 0 l 868 0 l 1061 785 l 1093 0 l 1357 0 l 1308 986 l 876 986 l 717 289 l 571 986 l 110 986 z "},"N":{"ha":1065,"x_min":0,"x_max":0,"o":"m 97 0 l 361 0 l 361 554 l 697 0 l 968 0 l 968 986 l 704 986 l 704 392 l 368 986 l 97 986 z "},"Ń":{"ha":1065,"x_min":0,"x_max":0,"o":"m 446 1060 l 626 1060 l 758 1306 l 536 1306 z m 97 0 l 361 0 l 361 554 l 697 0 l 968 0 l 968 986 l 704 986 l 704 392 l 368 986 l 97 986 z "},"Ň":{"ha":1065,"x_min":0,"x_max":0,"o":"m 436 1060 l 658 1060 l 776 1306 l 651 1306 l 547 1189 l 443 1306 l 318 1306 z m 97 0 l 361 0 l 361 554 l 697 0 l 968 0 l 968 986 l 704 986 l 704 392 l 368 986 l 97 986 z "},"Ņ":{"ha":1065,"x_min":0,"x_max":0,"o":"m 97 0 l 361 0 l 361 554 l 697 0 l 968 0 l 968 986 l 704 986 l 704 392 l 368 986 l 97 986 z m 478 -421 l 575 -421 l 658 -197 l 658 -65 l 438 -65 l 436 -253 l 513 -253 z "},"Ŋ":{"ha":1107,"x_min":0,"x_max":0,"o":"m 732 986 l 732 563 l 431 986 l 97 986 l 97 0 l 375 0 l 375 575 l 746 96 l 746 76 b 594 -60 746 -22 693 -60 b 482 -44 563 -60 525 -54 l 482 -250 b 675 -278 524 -267 613 -278 b 1010 49 889 -278 1010 -160 l 1010 986 z "},"Ñ":{"ha":1065,"x_min":0,"x_max":0,"o":"m 344 1088 b 415 1147 350 1122 381 1147 b 663 1094 500 1147 568 1094 b 847 1297 772 1094 847 1183 l 750 1297 b 682 1238 744 1263 717 1238 b 433 1290 597 1238 528 1290 b 247 1088 322 1290 247 1201 z m 97 0 l 361 0 l 361 554 l 697 0 l 968 0 l 968 986 l 704 986 l 704 392 l 368 986 l 97 986 z "},"O":{"ha":1031,"x_min":0,"x_max":0,"o":"m 515 -28 b 996 493 832 -28 996 149 b 515 1014 996 838 832 1014 b 35 493 199 1014 35 838 b 515 -28 35 149 199 -28 z m 515 201 b 326 493 383 201 326 289 b 515 785 326 697 383 785 b 704 493 647 785 704 697 b 515 201 704 289 647 201 z "},"Ó":{"ha":1031,"x_min":0,"x_max":0,"o":"m 414 1060 l 594 1060 l 726 1306 l 504 1306 z m 515 -28 b 996 493 832 -28 996 149 b 515 1014 996 838 832 1014 b 35 493 199 1014 35 838 b 515 -28 35 149 199 -28 z m 515 201 b 326 493 383 201 326 289 b 515 785 326 697 383 785 b 704 493 647 785 704 697 b 515 201 704 289 647 201 z "},"Ô":{"ha":1031,"x_min":0,"x_max":0,"o":"m 286 1060 l 411 1060 l 515 1176 l 619 1060 l 744 1060 l 626 1306 l 404 1306 z m 515 -28 b 996 493 832 -28 996 149 b 515 1014 996 838 832 1014 b 35 493 199 1014 35 838 b 515 -28 35 149 199 -28 z m 515 201 b 326 493 383 201 326 289 b 515 785 326 697 383 785 b 704 493 647 785 704 697 b 515 201 704 289 647 201 z "},"Ö":{"ha":1031,"x_min":0,"x_max":0,"o":"m 217 1101 l 453 1101 l 453 1292 l 217 1292 z m 578 1101 l 814 1101 l 814 1292 l 578 1292 z m 515 -28 b 996 493 832 -28 996 149 b 515 1014 996 838 832 1014 b 35 493 199 1014 35 838 b 515 -28 35 149 199 -28 z m 515 201 b 326 493 383 201 326 289 b 515 785 326 697 383 785 b 704 493 647 785 704 697 b 515 201 704 289 647 201 z "},"Ò":{"ha":1031,"x_min":0,"x_max":0,"o":"m 439 1060 l 619 1060 l 529 1306 l 307 1306 z m 515 -28 b 996 493 832 -28 996 149 b 515 1014 996 838 832 1014 b 35 493 199 1014 35 838 b 515 -28 35 149 199 -28 z m 515 201 b 326 493 383 201 326 289 b 515 785 326 697 383 785 b 704 493 647 785 704 697 b 515 201 704 289 647 201 z "},"Ő":{"ha":1031,"x_min":0,"x_max":0,"o":"m 282 1060 l 435 1060 l 553 1306 l 331 1306 z m 546 1060 l 699 1060 l 817 1306 l 594 1306 z m 515 -28 b 996 493 832 -28 996 149 b 515 1014 996 838 832 1014 b 35 493 199 1014 35 838 b 515 -28 35 149 199 -28 z m 515 201 b 326 493 383 201 326 289 b 515 785 326 697 383 785 b 704 493 647 785 704 697 b 515 201 704 289 647 201 z "},"Ō":{"ha":1031,"x_min":0,"x_max":0,"o":"m 257 1114 l 774 1114 l 774 1258 l 257 1258 z m 515 -28 b 996 493 832 -28 996 149 b 515 1014 996 838 832 1014 b 35 493 199 1014 35 838 b 515 -28 35 149 199 -28 z m 515 201 b 326 493 383 201 326 289 b 515 785 326 697 383 785 b 704 493 647 785 704 697 b 515 201 704 289 647 201 z "},"Ø":{"ha":1031,"x_min":0,"x_max":0,"o":"m 829 924 l 889 1042 l 696 1042 l 674 996 b 515 1014 625 1008 572 1014 b 35 493 199 1014 35 838 b 200 63 35 292 90 149 l 140 -56 l 333 -56 l 357 -10 b 515 -28 404 -22 457 -28 b 996 493 832 -28 996 149 b 829 924 996 694 939 839 z m 326 493 b 515 785 326 697 383 785 b 564 781 532 785 549 783 l 342 342 b 326 493 332 383 326 433 z m 515 201 b 465 206 497 201 481 203 l 689 646 b 704 493 699 604 704 554 b 515 201 704 289 647 201 z "},"Õ":{"ha":1031,"x_min":0,"x_max":0,"o":"m 313 1088 b 383 1147 318 1122 349 1147 b 631 1094 468 1147 536 1094 b 815 1297 740 1094 815 1183 l 718 1297 b 650 1238 713 1263 685 1238 b 401 1290 565 1238 496 1290 b 215 1088 290 1290 215 1201 z m 515 -28 b 996 493 832 -28 996 149 b 515 1014 996 838 832 1014 b 35 493 199 1014 35 838 b 515 -28 35 149 199 -28 z m 515 201 b 326 493 383 201 326 289 b 515 785 326 697 383 785 b 704 493 647 785 704 697 b 515 201 704 289 647 201 z "},"Œ":{"ha":1444,"x_min":0,"x_max":0,"o":"m 986 236 l 986 388 l 1326 388 l 1326 610 l 986 610 l 986 750 l 1396 750 l 1396 986 l 743 986 l 743 921 b 474 1014 679 982 590 1014 b 35 493 199 1014 35 838 b 474 -28 35 149 199 -28 b 743 65 590 -28 679 4 l 743 0 l 1410 0 l 1410 236 z m 515 215 b 340 493 393 215 340 299 b 515 771 340 688 393 771 b 690 493 638 771 690 688 b 515 215 690 299 638 215 z "},"P":{"ha":901,"x_min":0,"x_max":0,"o":"m 521 986 l 97 986 l 97 0 l 368 0 l 368 292 l 521 292 b 881 639 758 292 881 433 b 521 986 881 872 758 986 z m 483 507 l 368 507 l 368 771 l 483 771 b 607 639 569 771 607 731 b 483 507 607 547 569 507 z "},"Þ":{"ha":915,"x_min":0,"x_max":0,"o":"m 521 842 l 389 842 l 389 986 l 97 986 l 97 0 l 389 0 l 389 147 l 521 147 b 881 494 758 147 881 289 b 521 842 881 728 758 842 z m 493 379 l 389 379 l 389 610 l 493 610 b 589 494 560 610 589 575 b 493 379 589 414 560 379 z "},"Q":{"ha":1031,"x_min":0,"x_max":0,"o":"m 996 493 b 515 1014 996 838 832 1014 b 35 486 199 1014 35 835 b 374 -29 35 225 121 63 l 922 -222 l 975 -42 l 710 22 b 996 493 899 86 996 244 z m 326 493 b 515 785 326 697 383 785 b 704 493 647 785 704 697 b 515 201 704 289 647 201 b 326 493 383 201 326 289 z "},"R":{"ha":972,"x_min":0,"x_max":0,"o":"m 972 0 l 776 393 b 901 643 856 451 901 539 b 542 986 901 874 779 986 l 97 986 l 97 0 l 375 0 l 375 315 l 514 315 l 526 315 l 672 0 z m 375 754 l 507 754 b 624 643 589 754 624 721 b 507 521 624 557 589 521 l 375 521 z "},"Ŕ":{"ha":972,"x_min":0,"x_max":0,"o":"m 697 1306 l 475 1306 l 385 1060 l 565 1060 z m 972 0 l 776 393 b 901 643 856 451 901 539 b 542 986 901 874 779 986 l 97 986 l 97 0 l 375 0 l 375 315 l 514 315 l 526 315 l 672 0 z m 375 754 l 507 754 b 624 643 589 754 624 721 b 507 521 624 557 589 521 l 375 521 z "},"Ř":{"ha":972,"x_min":0,"x_max":0,"o":"m 597 1060 l 715 1306 l 590 1306 l 486 1189 l 382 1306 l 257 1306 l 375 1060 z m 972 0 l 776 393 b 901 643 856 451 901 539 b 542 986 901 874 779 986 l 97 986 l 97 0 l 375 0 l 375 315 l 514 315 l 526 315 l 672 0 z m 375 754 l 507 754 b 624 643 589 754 624 721 b 507 521 624 557 589 521 l 375 521 z "},"Ŗ":{"ha":972,"x_min":0,"x_max":0,"o":"m 776 393 b 901 643 856 451 901 539 b 542 986 901 874 779 986 l 97 986 l 97 0 l 375 0 l 375 315 l 514 315 l 526 315 l 672 0 l 972 0 z m 375 754 l 507 754 b 624 643 589 754 624 721 b 507 521 624 557 589 521 l 375 521 z m 375 -253 l 451 -253 l 417 -421 l 514 -421 l 597 -197 l 597 -65 l 376 -65 z "},"S":{"ha":906,"x_min":0,"x_max":0,"o":"m 446 -28 b 864 288 721 -28 864 83 b 518 607 864 514 669 568 b 314 725 406 633 314 656 b 443 807 314 782 353 807 b 589 674 540 807 589 763 l 843 674 b 453 1014 843 899 710 1014 b 54 710 190 1014 54 911 b 379 414 54 500 233 451 b 599 288 499 385 599 361 b 454 190 599 219 554 190 b 303 339 347 190 303 235 l 35 339 b 446 -28 35 97 175 -28 z "},"Ś":{"ha":906,"x_min":0,"x_max":0,"o":"m 351 1060 l 532 1060 l 664 1306 l 442 1306 z m 446 -28 b 864 288 721 -28 864 83 b 518 607 864 514 669 568 b 314 725 406 633 314 656 b 443 807 314 782 353 807 b 589 674 540 807 589 763 l 843 674 b 453 1014 843 899 710 1014 b 54 710 190 1014 54 911 b 379 414 54 500 233 451 b 599 288 499 385 599 361 b 454 190 599 219 554 190 b 303 339 347 190 303 235 l 35 339 b 446 -28 35 97 175 -28 z "},"Š":{"ha":906,"x_min":0,"x_max":0,"o":"m 342 1060 l 564 1060 l 682 1306 l 557 1306 l 453 1189 l 349 1306 l 224 1306 z m 446 -28 b 864 288 721 -28 864 83 b 518 607 864 514 669 568 b 314 725 406 633 314 656 b 443 807 314 782 353 807 b 589 674 540 807 589 763 l 843 674 b 453 1014 843 899 710 1014 b 54 710 190 1014 54 911 b 379 414 54 500 233 451 b 599 288 499 385 599 361 b 454 190 599 219 554 190 b 303 339 347 190 303 235 l 35 339 b 446 -28 35 97 175 -28 z "},"Ş":{"ha":906,"x_min":0,"x_max":0,"o":"m 864 288 b 518 607 864 514 669 568 b 314 725 406 633 314 656 b 443 807 314 782 353 807 b 589 674 540 807 589 763 l 843 674 b 453 1014 843 899 710 1014 b 54 710 190 1014 54 911 b 379 414 54 500 233 451 b 599 288 499 385 599 361 b 454 190 599 219 554 190 b 303 339 347 190 303 235 l 35 339 b 399 -26 35 111 158 -12 l 365 -117 l 385 -135 b 494 -181 463 -137 494 -158 b 449 -207 494 -203 475 -207 b 331 -169 408 -207 357 -192 l 300 -250 b 453 -300 335 -283 394 -300 b 611 -178 533 -300 611 -257 b 475 -61 611 -118 563 -75 l 499 -26 b 864 288 739 -12 864 97 z "},"Ș":{"ha":906,"x_min":0,"x_max":0,"o":"m 446 -28 b 864 288 721 -28 864 83 b 518 607 864 514 669 568 b 314 725 406 633 314 656 b 443 807 314 782 353 807 b 589 674 540 807 589 763 l 843 674 b 453 1014 843 899 710 1014 b 54 710 190 1014 54 911 b 379 414 54 500 233 451 b 599 288 499 385 599 361 b 454 190 599 219 554 190 b 303 339 347 190 303 235 l 35 339 b 446 -28 35 97 175 -28 z m 390 -421 l 488 -421 l 571 -197 l 571 -65 l 350 -65 l 349 -253 l 425 -253 z "},"T":{"ha":833,"x_min":0,"x_max":0,"o":"m 833 986 l 0 986 l 0 771 l 278 771 l 278 0 l 556 0 l 556 771 l 833 771 z "},"Ŧ":{"ha":833,"x_min":0,"x_max":0,"o":"m 833 771 l 833 986 l 0 986 l 0 771 l 278 771 l 278 565 l 83 565 l 83 421 l 278 421 l 278 0 l 556 0 l 556 421 l 750 421 l 750 565 l 556 565 l 556 771 z "},"Ť":{"ha":833,"x_min":0,"x_max":0,"o":"m 528 1060 l 646 1306 l 521 1306 l 417 1189 l 313 1306 l 188 1306 l 306 1060 z m 833 986 l 0 986 l 0 771 l 278 771 l 278 0 l 556 0 l 556 771 l 833 771 z "},"Ţ":{"ha":833,"x_min":0,"x_max":0,"o":"m 556 0 l 556 771 l 833 771 l 833 986 l 0 986 l 0 771 l 278 771 l 278 0 l 365 0 l 322 -117 l 342 -135 b 451 -181 419 -137 451 -158 b 406 -207 451 -203 432 -207 b 288 -169 365 -207 314 -192 l 257 -250 b 410 -300 292 -283 351 -300 b 568 -178 490 -300 568 -257 b 432 -61 568 -118 519 -75 l 472 0 z "},"Ț":{"ha":833,"x_min":0,"x_max":0,"o":"m 833 986 l 0 986 l 0 771 l 278 771 l 278 0 l 556 0 l 556 771 l 833 771 z m 306 -253 l 382 -253 l 347 -421 l 444 -421 l 528 -197 l 528 -65 l 307 -65 z "},"U":{"ha":1049,"x_min":0,"x_max":0,"o":"m 525 -28 b 951 382 804 -28 951 113 l 951 986 l 674 986 l 674 382 b 525 215 674 272 624 215 b 375 382 426 215 375 272 l 375 986 l 97 986 l 97 382 b 525 -28 97 113 244 -28 z "},"Ú":{"ha":1049,"x_min":0,"x_max":0,"o":"m 424 1060 l 604 1060 l 736 1306 l 514 1306 z m 525 -28 b 951 382 804 -28 951 113 l 951 986 l 674 986 l 674 382 b 525 215 674 272 624 215 b 375 382 426 215 375 272 l 375 986 l 97 986 l 97 382 b 525 -28 97 113 244 -28 z "},"Ǔ":{"ha":1049,"x_min":0,"x_max":0,"o":"m 414 1060 l 636 1060 l 754 1306 l 629 1306 l 525 1189 l 421 1306 l 296 1306 z m 525 -28 b 951 382 804 -28 951 113 l 951 986 l 674 986 l 674 382 b 525 215 674 272 624 215 b 375 382 426 215 375 272 l 375 986 l 97 986 l 97 382 b 525 -28 97 113 244 -28 z "},"Û":{"ha":1049,"x_min":0,"x_max":0,"o":"m 296 1060 l 421 1060 l 525 1176 l 629 1060 l 754 1060 l 636 1306 l 414 1306 z m 525 -28 b 951 382 804 -28 951 113 l 951 986 l 674 986 l 674 382 b 525 215 674 272 624 215 b 375 382 426 215 375 272 l 375 986 l 97 986 l 97 382 b 525 -28 97 113 244 -28 z "},"Ü":{"ha":1049,"x_min":0,"x_max":0,"o":"m 226 1101 l 463 1101 l 463 1292 l 226 1292 z m 588 1101 l 824 1101 l 824 1292 l 588 1292 z m 525 -28 b 951 382 804 -28 951 113 l 951 986 l 674 986 l 674 382 b 525 215 674 272 624 215 b 375 382 426 215 375 272 l 375 986 l 97 986 l 97 382 b 525 -28 97 113 244 -28 z "},"Ù":{"ha":1049,"x_min":0,"x_max":0,"o":"m 449 1060 l 629 1060 l 539 1306 l 317 1306 z m 525 -28 b 951 382 804 -28 951 113 l 951 986 l 674 986 l 674 382 b 525 215 674 272 624 215 b 375 382 426 215 375 272 l 375 986 l 97 986 l 97 382 b 525 -28 97 113 244 -28 z "},"Ű":{"ha":1049,"x_min":0,"x_max":0,"o":"m 292 1060 l 444 1060 l 563 1306 l 340 1306 z m 556 1060 l 708 1060 l 826 1306 l 604 1306 z m 525 -28 b 951 382 804 -28 951 113 l 951 986 l 674 986 l 674 382 b 525 215 674 272 624 215 b 375 382 426 215 375 272 l 375 986 l 97 986 l 97 382 b 525 -28 97 113 244 -28 z "},"Ū":{"ha":1049,"x_min":0,"x_max":0,"o":"m 267 1114 l 783 1114 l 783 1258 l 267 1258 z m 525 -28 b 951 382 804 -28 951 113 l 951 986 l 674 986 l 674 382 b 525 215 674 272 624 215 b 375 382 426 215 375 272 l 375 986 l 97 986 l 97 382 b 525 -28 97 113 244 -28 z "},"Ų":{"ha":1049,"x_min":0,"x_max":0,"o":"m 674 986 l 674 382 b 525 215 674 272 624 215 b 375 382 426 215 375 272 l 375 986 l 97 986 l 97 382 b 507 -28 97 118 238 -21 b 450 -146 471 -57 450 -97 b 604 -278 450 -232 524 -278 b 747 -224 654 -278 708 -260 l 747 -143 b 646 -171 719 -160 681 -171 b 571 -114 606 -171 571 -156 b 672 -12 571 -69 610 -33 b 706 -3 683 -10 694 -6 b 719 0 710 -1 715 -1 l 718 1 b 951 382 872 56 951 183 l 951 986 z "},"Ů":{"ha":1049,"x_min":0,"x_max":0,"o":"m 525 1033 b 711 1196 642 1033 711 1096 b 525 1357 711 1296 642 1357 b 338 1196 410 1357 338 1296 b 525 1033 338 1096 410 1033 z m 525 1129 b 463 1196 486 1129 463 1156 b 525 1263 463 1238 486 1263 b 586 1196 563 1263 586 1238 b 525 1129 586 1156 563 1129 z m 525 -28 b 951 382 804 -28 951 113 l 951 986 l 674 986 l 674 382 b 525 215 674 272 624 215 b 375 382 426 215 375 272 l 375 986 l 97 986 l 97 382 b 525 -28 97 113 244 -28 z "},"V":{"ha":1019,"x_min":0,"x_max":0,"o":"m 294 0 l 722 0 l 1019 986 l 750 986 l 522 186 l 306 986 l 0 986 z "},"W":{"ha":1549,"x_min":0,"x_max":0,"o":"m 206 0 l 597 0 l 775 722 l 943 0 l 1329 0 l 1549 986 l 1278 986 l 1140 217 l 972 986 l 606 986 l 432 217 l 296 986 l 0 986 z "},"Ẃ":{"ha":1549,"x_min":0,"x_max":0,"o":"m 674 1060 l 854 1060 l 986 1306 l 764 1306 z m 206 0 l 597 0 l 775 722 l 943 0 l 1329 0 l 1549 986 l 1278 986 l 1140 217 l 972 986 l 606 986 l 432 217 l 296 986 l 0 986 z "},"Ŵ":{"ha":1549,"x_min":0,"x_max":0,"o":"m 546 1060 l 671 1060 l 775 1176 l 879 1060 l 1004 1060 l 886 1306 l 664 1306 z m 206 0 l 597 0 l 775 722 l 943 0 l 1329 0 l 1549 986 l 1278 986 l 1140 217 l 972 986 l 606 986 l 432 217 l 296 986 l 0 986 z "},"Ẅ":{"ha":1549,"x_min":0,"x_max":0,"o":"m 476 1101 l 713 1101 l 713 1292 l 476 1292 z m 838 1101 l 1074 1101 l 1074 1292 l 838 1292 z m 206 0 l 597 0 l 775 722 l 943 0 l 1329 0 l 1549 986 l 1278 986 l 1140 217 l 972 986 l 606 986 l 432 217 l 296 986 l 0 986 z "},"Ẁ":{"ha":1549,"x_min":0,"x_max":0,"o":"m 699 1060 l 879 1060 l 789 1306 l 567 1306 z m 206 0 l 597 0 l 775 722 l 943 0 l 1329 0 l 1549 986 l 1278 986 l 1140 217 l 972 986 l 606 986 l 432 217 l 296 986 l 0 986 z "},"X":{"ha":957,"x_min":0,"x_max":0,"o":"m 14 0 l 311 0 l 460 279 l 625 0 l 943 0 l 619 497 l 933 986 l 664 986 l 499 688 l 336 986 l 18 986 l 332 482 z "},"Y":{"ha":950,"x_min":0,"x_max":0,"o":"m 950 986 l 654 986 l 486 588 l 317 986 l 0 986 l 329 383 l 329 0 l 621 0 l 621 383 z "},"Ý":{"ha":950,"x_min":0,"x_max":0,"o":"m 686 1306 l 464 1306 l 374 1060 l 554 1060 z m 950 986 l 654 986 l 486 588 l 317 986 l 0 986 l 329 383 l 329 0 l 621 0 l 621 383 z "},"Ŷ":{"ha":950,"x_min":0,"x_max":0,"o":"m 475 1176 l 579 1060 l 704 1060 l 586 1306 l 364 1306 l 246 1060 l 371 1060 z m 950 986 l 654 986 l 486 588 l 317 986 l 0 986 l 329 383 l 329 0 l 621 0 l 621 383 z "},"Ÿ":{"ha":950,"x_min":0,"x_max":0,"o":"m 413 1292 l 176 1292 l 176 1101 l 413 1101 z m 774 1292 l 538 1292 l 538 1101 l 774 1101 z m 950 986 l 654 986 l 486 588 l 317 986 l 0 986 l 329 383 l 329 0 l 621 0 l 621 383 z "},"Ỳ":{"ha":950,"x_min":0,"x_max":0,"o":"m 579 1060 l 489 1306 l 267 1306 l 399 1060 z m 950 986 l 654 986 l 486 588 l 317 986 l 0 986 l 329 383 l 329 0 l 621 0 l 621 383 z "},"Z":{"ha":882,"x_min":0,"x_max":0,"o":"m 390 215 l 817 806 l 817 986 l 56 986 l 56 771 l 482 771 l 42 181 l 42 0 l 840 0 l 840 215 z "},"Ź":{"ha":882,"x_min":0,"x_max":0,"o":"m 653 1306 l 431 1306 l 340 1060 l 521 1060 z m 390 215 l 817 806 l 817 986 l 56 986 l 56 771 l 482 771 l 42 181 l 42 0 l 840 0 l 840 215 z "},"Ž":{"ha":882,"x_min":0,"x_max":0,"o":"m 553 1060 l 671 1306 l 546 1306 l 442 1189 l 338 1306 l 213 1306 l 331 1060 z m 390 215 l 817 806 l 817 986 l 56 986 l 56 771 l 482 771 l 42 181 l 42 0 l 840 0 l 840 215 z "},"Ż":{"ha":882,"x_min":0,"x_max":0,"o":"m 574 1306 l 310 1306 l 310 1088 l 574 1088 z m 390 215 l 817 806 l 817 986 l 56 986 l 56 771 l 482 771 l 42 181 l 42 0 l 840 0 l 840 215 z "},"a":{"ha":849,"x_min":0,"x_max":0,"o":"m 807 0 b 779 232 789 61 779 140 l 779 458 b 413 778 779 669 656 778 b 63 492 181 778 63 681 l 310 492 b 417 597 310 565 343 597 b 529 458 496 597 529 556 l 529 440 l 372 429 b 35 204 149 414 35 338 b 307 -28 35 50 126 -28 b 544 100 418 -28 503 21 b 565 0 549 60 554 26 z m 390 144 b 299 226 335 144 299 172 b 400 310 299 275 333 304 l 529 325 l 529 317 b 390 144 529 200 485 144 z "},"á":{"ha":849,"x_min":0,"x_max":0,"o":"m 636 1083 l 414 1083 l 324 838 l 504 838 z m 807 0 b 779 232 789 61 779 140 l 779 458 b 413 778 779 669 656 778 b 63 492 181 778 63 681 l 310 492 b 417 597 310 565 343 597 b 529 458 496 597 529 556 l 529 440 l 372 429 b 35 204 149 414 35 338 b 307 -28 35 50 126 -28 b 544 100 418 -28 503 21 b 565 0 549 60 554 26 z m 390 144 b 299 226 335 144 299 172 b 400 310 299 275 333 304 l 529 325 l 529 317 b 390 144 529 200 485 144 z "},"ă":{"ha":849,"x_min":0,"x_max":0,"o":"m 425 838 b 654 1083 576 838 654 921 l 508 1083 b 425 974 508 1007 483 974 b 342 1083 367 974 342 1007 l 196 1083 b 425 838 196 921 274 838 z m 807 0 b 779 232 789 61 779 140 l 779 458 b 413 778 779 669 656 778 b 63 492 181 778 63 681 l 310 492 b 417 597 310 565 343 597 b 529 458 496 597 529 556 l 529 440 l 372 429 b 35 204 149 414 35 338 b 307 -28 35 50 126 -28 b 544 100 418 -28 503 21 b 565 0 549 60 554 26 z m 390 144 b 299 226 335 144 299 172 b 400 310 299 275 333 304 l 529 325 l 529 317 b 390 144 529 200 485 144 z "},"â":{"ha":849,"x_min":0,"x_max":0,"o":"m 425 954 l 529 838 l 654 838 l 536 1083 l 314 1083 l 196 838 l 321 838 z m 807 0 b 779 232 789 61 779 140 l 779 458 b 413 778 779 669 656 778 b 63 492 181 778 63 681 l 310 492 b 417 597 310 565 343 597 b 529 458 496 597 529 556 l 529 440 l 372 429 b 35 204 149 414 35 338 b 307 -28 35 50 126 -28 b 544 100 418 -28 503 21 b 565 0 549 60 554 26 z m 390 144 b 299 226 335 144 299 172 b 400 310 299 275 333 304 l 529 325 l 529 317 b 390 144 529 200 485 144 z "},"ä":{"ha":849,"x_min":0,"x_max":0,"o":"m 363 1069 l 126 1069 l 126 879 l 363 879 z m 724 1069 l 488 1069 l 488 879 l 724 879 z m 807 0 b 779 232 789 61 779 140 l 779 458 b 413 778 779 669 656 778 b 63 492 181 778 63 681 l 310 492 b 417 597 310 565 343 597 b 529 458 496 597 529 556 l 529 440 l 372 429 b 35 204 149 414 35 338 b 307 -28 35 50 126 -28 b 544 100 418 -28 503 21 b 565 0 549 60 554 26 z m 390 144 b 299 226 335 144 299 172 b 400 310 299 275 333 304 l 529 325 l 529 317 b 390 144 529 200 485 144 z "},"à":{"ha":849,"x_min":0,"x_max":0,"o":"m 529 838 l 439 1083 l 217 1083 l 349 838 z m 807 0 b 779 232 789 61 779 140 l 779 458 b 413 778 779 669 656 778 b 63 492 181 778 63 681 l 310 492 b 417 597 310 565 343 597 b 529 458 496 597 529 556 l 529 440 l 372 429 b 35 204 149 414 35 338 b 307 -28 35 50 126 -28 b 544 100 418 -28 503 21 b 565 0 549 60 554 26 z m 390 144 b 299 226 335 144 299 172 b 400 310 299 275 333 304 l 529 325 l 529 317 b 390 144 529 200 485 144 z "},"ā":{"ha":849,"x_min":0,"x_max":0,"o":"m 683 1036 l 167 1036 l 167 892 l 683 892 z m 807 0 b 779 232 789 61 779 140 l 779 458 b 413 778 779 669 656 778 b 63 492 181 778 63 681 l 310 492 b 417 597 310 565 343 597 b 529 458 496 597 529 556 l 529 440 l 372 429 b 35 204 149 414 35 338 b 307 -28 35 50 126 -28 b 544 100 418 -28 503 21 b 565 0 549 60 554 26 z m 390 144 b 299 226 335 144 299 172 b 400 310 299 275 333 304 l 529 325 l 529 317 b 390 144 529 200 485 144 z "},"ą":{"ha":849,"x_min":0,"x_max":0,"o":"m 733 -171 b 658 -114 693 -171 658 -156 b 807 0 658 -58 718 -17 b 779 232 789 61 779 140 l 779 458 b 413 778 779 669 656 778 b 63 492 181 778 63 681 l 310 492 b 417 597 310 565 343 597 b 529 458 496 597 529 556 l 529 440 l 372 429 b 35 204 149 414 35 338 b 307 -28 35 50 126 -28 b 544 100 418 -28 503 21 b 565 0 549 60 554 26 l 638 0 b 538 -146 575 -31 538 -81 b 692 -278 538 -232 611 -278 b 835 -224 742 -278 796 -260 l 835 -143 b 733 -171 807 -160 768 -171 z m 390 144 b 299 226 335 144 299 172 b 400 310 299 275 333 304 l 529 325 l 529 317 b 390 144 529 200 485 144 z "},"å":{"ha":849,"x_min":0,"x_max":0,"o":"m 425 811 b 611 974 542 811 611 874 b 425 1135 611 1074 542 1135 b 238 974 310 1135 238 1074 b 425 811 238 874 310 811 z m 425 1040 b 486 974 463 1040 486 1015 b 425 907 486 933 463 907 b 363 974 386 907 363 933 b 425 1040 363 1015 386 1040 z m 807 0 b 779 232 789 61 779 140 l 779 458 b 413 778 779 669 656 778 b 63 492 181 778 63 681 l 310 492 b 417 597 310 565 343 597 b 529 458 496 597 529 556 l 529 440 l 372 429 b 35 204 149 414 35 338 b 307 -28 35 50 126 -28 b 544 100 418 -28 503 21 b 565 0 549 60 554 26 z m 390 144 b 299 226 335 144 299 172 b 400 310 299 275 333 304 l 529 325 l 529 317 b 390 144 529 200 485 144 z "},"ã":{"ha":849,"x_min":0,"x_max":0,"o":"m 293 925 b 540 872 378 925 446 872 b 725 1075 650 872 725 961 l 628 1075 b 560 1015 622 1040 594 1015 b 311 1068 475 1015 406 1068 b 125 865 200 1068 125 979 l 222 865 b 293 925 228 900 258 925 z m 807 0 b 779 232 789 61 779 140 l 779 458 b 413 778 779 669 656 778 b 63 492 181 778 63 681 l 310 492 b 417 597 310 565 343 597 b 529 458 496 597 529 556 l 529 440 l 372 429 b 35 204 149 414 35 338 b 307 -28 35 50 126 -28 b 544 100 418 -28 503 21 b 565 0 549 60 554 26 z m 390 144 b 299 226 335 144 299 172 b 400 310 299 275 333 304 l 529 325 l 529 317 b 390 144 529 200 485 144 z "},"æ":{"ha":1315,"x_min":0,"x_max":0,"o":"m 1281 418 b 910 778 1281 656 1153 778 b 667 676 801 778 721 743 b 419 778 614 744 529 778 b 69 492 188 778 69 681 l 296 492 b 404 597 296 561 333 597 b 529 458 486 597 529 550 l 529 439 l 372 438 b 35 204 150 436 35 357 b 335 -28 35 50 126 -28 b 639 115 476 -28 588 26 b 910 -28 692 21 782 -28 b 1275 239 1115 -28 1242 63 l 1028 239 b 904 153 1014 179 978 153 b 782 317 829 153 790 203 l 1275 317 b 1281 418 1279 347 1281 382 z m 782 438 b 911 597 790 543 826 597 b 1032 438 989 597 1031 543 z m 390 144 b 292 226 331 144 292 172 b 400 317 292 279 328 317 l 529 317 b 390 144 529 214 479 144 z "},"b":{"ha":918,"x_min":0,"x_max":0,"o":"m 588 778 b 361 669 486 778 411 742 l 361 1083 l 97 1083 l 97 0 l 321 0 l 340 118 b 588 -28 388 21 471 -28 b 883 375 783 -28 883 110 b 588 778 883 640 783 778 z m 490 153 b 361 375 400 153 361 219 b 490 597 361 531 400 597 b 619 375 581 597 619 531 b 490 153 619 219 581 153 z "},"c":{"ha":786,"x_min":0,"x_max":0,"o":"m 433 -28 b 772 267 619 -28 740 72 l 525 267 b 428 153 513 188 483 153 b 299 375 338 153 299 219 b 428 597 299 531 338 597 b 525 497 474 597 515 567 l 768 497 b 435 778 736 682 622 778 b 35 375 171 778 35 640 b 433 -28 35 110 171 -28 z "},"ć":{"ha":786,"x_min":0,"x_max":0,"o":"m 292 838 l 472 838 l 604 1083 l 382 1083 z m 433 -28 b 772 267 619 -28 740 72 l 525 267 b 428 153 513 188 483 153 b 299 375 338 153 299 219 b 428 597 299 531 338 597 b 525 497 474 597 515 567 l 768 497 b 435 778 736 682 622 778 b 35 375 171 778 35 640 b 433 -28 35 110 171 -28 z "},"č":{"ha":786,"x_min":0,"x_max":0,"o":"m 282 838 l 504 838 l 622 1083 l 497 1083 l 393 967 l 289 1083 l 164 1083 z m 433 -28 b 772 267 619 -28 740 72 l 525 267 b 428 153 513 188 483 153 b 299 375 338 153 299 219 b 428 597 299 531 338 597 b 525 497 474 597 515 567 l 768 497 b 435 778 736 682 622 778 b 35 375 171 778 35 640 b 433 -28 35 110 171 -28 z "},"ç":{"ha":786,"x_min":0,"x_max":0,"o":"m 772 267 l 525 267 b 428 153 513 188 483 153 b 299 375 338 153 299 219 b 428 597 299 531 338 597 b 525 497 474 597 515 567 l 768 497 b 435 778 736 682 622 778 b 35 375 171 778 35 640 b 361 -24 35 136 146 0 l 326 -117 l 346 -135 b 456 -181 424 -137 456 -158 b 410 -207 456 -203 436 -207 b 292 -169 369 -207 318 -192 l 261 -250 b 414 -300 296 -283 356 -300 b 572 -178 494 -300 572 -257 b 436 -61 572 -118 524 -75 l 458 -28 b 772 267 631 -18 742 81 z "},"ċ":{"ha":786,"x_min":0,"x_max":0,"o":"m 261 865 l 525 865 l 525 1083 l 261 1083 z m 433 -28 b 772 267 619 -28 740 72 l 525 267 b 428 153 513 188 483 153 b 299 375 338 153 299 219 b 428 597 299 531 338 597 b 525 497 474 597 515 567 l 768 497 b 435 778 736 682 622 778 b 35 375 171 778 35 640 b 433 -28 35 110 171 -28 z "},"d":{"ha":929,"x_min":0,"x_max":0,"o":"m 557 1083 l 557 669 b 331 778 507 742 432 778 b 35 375 135 778 35 640 b 331 -28 35 110 135 -28 b 578 118 447 -28 531 21 l 597 0 l 821 0 l 821 1083 z m 428 153 b 299 375 338 153 299 219 b 428 597 299 531 338 597 b 557 375 518 597 557 531 b 428 153 557 219 518 153 z "},"ð":{"ha":851,"x_min":0,"x_max":0,"o":"m 685 924 l 781 997 l 688 1121 l 564 1025 b 146 1111 461 1083 322 1111 l 146 911 b 378 883 240 911 317 901 l 235 772 l 329 650 l 519 796 b 593 508 576 729 596 633 b 339 626 536 588 463 626 b 21 317 133 626 21 522 b 406 -28 21 90 160 -28 b 803 507 688 -28 803 139 b 685 924 803 688 765 826 z m 404 167 b 271 307 310 167 271 219 b 404 446 271 397 310 446 b 536 307 490 446 536 397 b 404 167 536 219 490 167 z "},"ď":{"ha":929,"x_min":0,"x_max":0,"o":"m 557 669 b 331 778 507 742 432 778 b 35 375 135 778 35 640 b 331 -28 35 110 135 -28 b 578 118 447 -28 531 21 l 597 0 l 821 0 l 821 1083 l 557 1083 z m 863 1083 l 849 768 l 979 768 l 1007 1083 z m 428 153 b 299 375 338 153 299 219 b 428 597 299 531 338 597 b 557 375 518 597 557 531 b 428 153 557 219 518 153 z "},"đ":{"ha":929,"x_min":0,"x_max":0,"o":"m 918 982 l 821 982 l 821 1083 l 557 1083 l 557 982 l 363 982 l 363 838 l 557 838 l 557 669 b 331 778 507 742 432 778 b 35 375 135 778 35 640 b 331 -28 35 110 135 -28 b 578 118 447 -28 531 21 l 597 0 l 821 0 l 821 838 l 918 838 z m 428 153 b 299 375 338 153 299 219 b 428 597 299 531 338 597 b 557 375 518 597 557 531 b 428 153 557 219 518 153 z "},"e":{"ha":835,"x_min":0,"x_max":0,"o":"m 800 418 b 429 778 800 656 672 778 b 35 375 167 778 35 640 b 429 -28 35 110 167 -28 b 794 239 635 -28 761 63 l 547 239 b 424 153 533 179 497 153 b 301 317 349 153 310 203 l 794 317 b 800 418 799 347 800 382 z m 421 597 b 551 444 507 597 551 544 l 301 444 b 421 597 311 546 344 597 z "},"é":{"ha":835,"x_min":0,"x_max":0,"o":"m 632 1083 l 410 1083 l 319 838 l 500 838 z m 800 418 b 429 778 800 656 672 778 b 35 375 167 778 35 640 b 429 -28 35 110 167 -28 b 794 239 635 -28 761 63 l 547 239 b 424 153 533 179 497 153 b 301 317 349 153 310 203 l 794 317 b 800 418 799 347 800 382 z m 421 597 b 551 444 507 597 551 544 l 301 444 b 421 597 311 546 344 597 z "},"ě":{"ha":835,"x_min":0,"x_max":0,"o":"m 532 838 l 650 1083 l 525 1083 l 421 967 l 317 1083 l 192 1083 l 310 838 z m 800 418 b 429 778 800 656 672 778 b 35 375 167 778 35 640 b 429 -28 35 110 167 -28 b 794 239 635 -28 761 63 l 547 239 b 424 153 533 179 497 153 b 301 317 349 153 310 203 l 794 317 b 800 418 799 347 800 382 z m 421 597 b 551 444 507 597 551 544 l 301 444 b 421 597 311 546 344 597 z "},"ê":{"ha":835,"x_min":0,"x_max":0,"o":"m 421 954 l 525 838 l 650 838 l 532 1083 l 310 1083 l 192 838 l 317 838 z m 800 418 b 429 778 800 656 672 778 b 35 375 167 778 35 640 b 429 -28 35 110 167 -28 b 794 239 635 -28 761 63 l 547 239 b 424 153 533 179 497 153 b 301 317 349 153 310 203 l 794 317 b 800 418 799 347 800 382 z m 421 597 b 551 444 507 597 551 544 l 301 444 b 421 597 311 546 344 597 z "},"ë":{"ha":835,"x_min":0,"x_max":0,"o":"m 358 1069 l 122 1069 l 122 879 l 358 879 z m 719 1069 l 483 1069 l 483 879 l 719 879 z m 800 418 b 429 778 800 656 672 778 b 35 375 167 778 35 640 b 429 -28 35 110 167 -28 b 794 239 635 -28 761 63 l 547 239 b 424 153 533 179 497 153 b 301 317 349 153 310 203 l 794 317 b 800 418 799 347 800 382 z m 421 597 b 551 444 507 597 551 544 l 301 444 b 421 597 311 546 344 597 z "},"ė":{"ha":835,"x_min":0,"x_max":0,"o":"m 553 1083 l 289 1083 l 289 865 l 553 865 z m 800 418 b 429 778 800 656 672 778 b 35 375 167 778 35 640 b 429 -28 35 110 167 -28 b 794 239 635 -28 761 63 l 547 239 b 424 153 533 179 497 153 b 301 317 349 153 310 203 l 794 317 b 800 418 799 347 800 382 z m 421 597 b 551 444 507 597 551 544 l 301 444 b 421 597 311 546 344 597 z "},"è":{"ha":835,"x_min":0,"x_max":0,"o":"m 525 838 l 435 1083 l 213 1083 l 344 838 z m 800 418 b 429 778 800 656 672 778 b 35 375 167 778 35 640 b 429 -28 35 110 167 -28 b 794 239 635 -28 761 63 l 547 239 b 424 153 533 179 497 153 b 301 317 349 153 310 203 l 794 317 b 800 418 799 347 800 382 z m 421 597 b 551 444 507 597 551 544 l 301 444 b 421 597 311 546 344 597 z "},"ē":{"ha":835,"x_min":0,"x_max":0,"o":"m 679 1036 l 163 1036 l 163 892 l 679 892 z m 800 418 b 429 778 800 656 672 778 b 35 375 167 778 35 640 b 429 -28 35 110 167 -28 b 794 239 635 -28 761 63 l 547 239 b 424 153 533 179 497 153 b 301 317 349 153 310 203 l 794 317 b 800 418 799 347 800 382 z m 421 597 b 551 444 507 597 551 544 l 301 444 b 421 597 311 546 344 597 z "},"ę":{"ha":835,"x_min":0,"x_max":0,"o":"m 800 418 b 429 778 800 656 672 778 b 35 375 167 778 35 640 b 389 -26 35 124 153 -14 b 332 -146 353 -57 332 -97 b 486 -278 332 -232 406 -278 b 629 -224 536 -278 590 -260 l 629 -143 b 528 -171 601 -160 563 -171 b 453 -114 488 -171 453 -156 b 539 -18 453 -72 486 -39 b 794 239 679 10 768 96 l 547 239 b 424 153 533 179 497 153 b 301 317 349 153 310 203 l 794 317 b 800 418 799 347 800 382 z m 421 597 b 551 444 507 597 551 544 l 301 444 b 421 597 311 546 344 597 z "},"f":{"ha":572,"x_min":0,"x_max":0,"o":"m 463 928 b 600 896 508 928 563 915 l 600 1083 b 392 1114 549 1101 465 1114 b 97 833 215 1114 97 1001 l 97 764 l 0 764 l 0 597 l 97 597 l 97 0 l 361 0 l 361 597 l 571 597 l 571 764 l 361 764 l 361 819 b 463 928 361 885 399 928 z "},"g":{"ha":925,"x_min":0,"x_max":0,"o":"m 604 764 l 582 625 b 331 778 535 726 450 778 b 35 375 135 778 35 640 b 331 -28 35 110 135 -28 b 564 92 436 -28 515 13 l 564 14 b 418 -132 564 -81 518 -132 b 311 -76 369 -132 322 -110 l 75 -76 b 431 -303 75 -212 217 -303 b 828 83 669 -303 828 -193 l 828 764 z m 428 153 b 299 375 338 153 299 219 b 428 597 299 531 338 597 b 564 375 522 597 564 531 b 428 153 564 219 522 153 z "},"ğ":{"ha":925,"x_min":0,"x_max":0,"o":"m 463 838 b 692 1083 614 838 692 921 l 546 1083 b 463 974 546 1007 521 974 b 379 1083 404 974 379 1007 l 233 1083 b 463 838 233 921 311 838 z m 604 764 l 582 625 b 331 778 535 726 450 778 b 35 375 135 778 35 640 b 331 -28 35 110 135 -28 b 564 92 436 -28 515 13 l 564 14 b 418 -132 564 -81 518 -132 b 311 -76 369 -132 322 -110 l 75 -76 b 431 -303 75 -212 217 -303 b 828 83 669 -303 828 -193 l 828 764 z m 428 153 b 299 375 338 153 299 219 b 428 597 299 531 338 597 b 564 375 522 597 564 531 b 428 153 564 219 522 153 z "},"ģ":{"ha":925,"x_min":0,"x_max":0,"o":"m 574 1053 l 497 1053 l 532 1221 l 435 1221 l 351 997 l 351 865 l 572 865 z m 604 764 l 582 625 b 331 778 535 726 450 778 b 35 375 135 778 35 640 b 331 -28 35 110 135 -28 b 564 92 436 -28 515 13 l 564 14 b 418 -132 564 -81 518 -132 b 311 -76 369 -132 322 -110 l 75 -76 b 431 -303 75 -212 217 -303 b 828 83 669 -303 828 -193 l 828 764 z m 428 153 b 299 375 338 153 299 219 b 428 597 299 531 338 597 b 564 375 522 597 564 531 b 428 153 564 219 522 153 z "},"ġ":{"ha":925,"x_min":0,"x_max":0,"o":"m 594 1083 l 331 1083 l 331 865 l 594 865 z m 604 764 l 582 625 b 331 778 535 726 450 778 b 35 375 135 778 35 640 b 331 -28 35 110 135 -28 b 564 92 436 -28 515 13 l 564 14 b 418 -132 564 -81 518 -132 b 311 -76 369 -132 322 -110 l 75 -76 b 431 -303 75 -212 217 -303 b 828 83 669 -303 828 -193 l 828 764 z m 428 153 b 299 375 338 153 299 219 b 428 597 299 531 338 597 b 564 375 522 597 564 531 b 428 153 564 219 522 153 z "},"h":{"ha":935,"x_min":0,"x_max":0,"o":"m 594 778 b 357 626 485 778 397 719 l 357 1083 l 97 1083 l 97 0 l 357 0 l 357 375 b 493 597 357 508 411 597 b 594 424 564 597 594 544 l 594 0 l 858 0 l 858 424 b 594 778 858 671 772 778 z "},"ħ":{"ha":935,"x_min":0,"x_max":0,"o":"m 594 778 b 357 626 485 778 397 719 l 357 838 l 563 838 l 563 982 l 357 982 l 357 1083 l 97 1083 l 97 982 l 7 982 l 7 838 l 97 838 l 97 0 l 357 0 l 357 375 b 493 597 357 508 411 597 b 594 424 564 597 594 544 l 594 0 l 858 0 l 858 424 b 594 778 858 671 772 778 z "},"i":{"ha":458,"x_min":0,"x_max":0,"o":"m 97 865 l 361 865 l 361 1083 l 97 1083 z m 97 0 l 361 0 l 361 764 l 97 764 z "},"ı":{"ha":458,"x_min":0,"x_max":0,"o":"m 97 0 l 361 0 l 361 764 l 97 764 z "},"í":{"ha":458,"x_min":0,"x_max":0,"o":"m 128 838 l 308 838 l 440 1083 l 218 1083 z m 97 0 l 361 0 l 361 764 l 97 764 z "},"î":{"ha":458,"x_min":0,"x_max":0,"o":"m 0 838 l 125 838 l 229 954 l 333 838 l 458 838 l 340 1083 l 118 1083 z m 97 0 l 361 0 l 361 764 l 97 764 z "},"ï":{"ha":458,"x_min":0,"x_max":0,"o":"m -69 879 l 167 879 l 167 1069 l -69 1069 z m 292 879 l 528 879 l 528 1069 l 292 1069 z m 97 0 l 361 0 l 361 764 l 97 764 z "},"ì":{"ha":458,"x_min":0,"x_max":0,"o":"m 153 838 l 333 838 l 243 1083 l 21 1083 z m 97 0 l 361 0 l 361 764 l 97 764 z "},"ī":{"ha":458,"x_min":0,"x_max":0,"o":"m -29 892 l 488 892 l 488 1036 l -29 1036 z m 97 0 l 361 0 l 361 764 l 97 764 z "},"į":{"ha":458,"x_min":0,"x_max":0,"o":"m 361 1083 l 97 1083 l 97 865 l 361 865 z m 288 -171 b 213 -114 247 -171 213 -156 b 361 0 213 -58 272 -17 l 361 764 l 97 764 l 97 0 l 192 0 b 92 -146 129 -31 92 -81 b 246 -278 92 -232 165 -278 b 389 -224 296 -278 350 -260 l 389 -143 b 288 -171 361 -160 322 -171 z "},"j":{"ha":468,"x_min":0,"x_max":0,"o":"m 115 865 l 379 865 l 379 1083 l 115 1083 z m 39 -278 b 378 56 244 -278 378 -164 l 378 764 l 114 764 l 114 42 b 29 -92 114 -56 85 -92 b -69 -82 1 -92 -31 -87 l -69 -262 b 39 -278 -31 -274 6 -278 z "},"ȷ":{"ha":468,"x_min":0,"x_max":0,"o":"m 39 -278 b 378 56 244 -278 378 -164 l 378 764 l 114 764 l 114 42 b 29 -92 114 -56 85 -92 b -69 -82 1 -92 -31 -87 l -69 -262 b 39 -278 -31 -274 6 -278 z "},"k":{"ha":860,"x_min":0,"x_max":0,"o":"m 550 0 l 860 0 l 557 442 l 856 764 l 550 764 l 350 517 l 350 1083 l 90 1083 l 90 0 l 350 0 l 350 217 l 401 271 z "},"ķ":{"ha":860,"x_min":0,"x_max":0,"o":"m 557 442 l 856 764 l 550 764 l 350 517 l 350 1083 l 90 1083 l 90 0 l 350 0 l 350 217 l 401 271 l 550 0 l 860 0 z m 319 -253 l 396 -253 l 361 -421 l 458 -421 l 542 -197 l 542 -65 l 321 -65 z "},"l":{"ha":465,"x_min":0,"x_max":0,"o":"m 97 0 l 357 0 l 357 1083 l 97 1083 z "},"ĺ":{"ha":465,"x_min":0,"x_max":0,"o":"m 132 1157 l 313 1157 l 444 1403 l 222 1403 z m 97 0 l 357 0 l 357 1083 l 97 1083 z "},"ľ":{"ha":465,"x_min":0,"x_max":0,"o":"m 97 0 l 357 0 l 357 1083 l 97 1083 z m 385 768 l 515 768 l 543 1083 l 399 1083 z "},"ļ":{"ha":465,"x_min":0,"x_max":0,"o":"m 97 0 l 357 0 l 357 1083 l 97 1083 z m 164 -421 l 261 -421 l 344 -197 l 344 -65 l 124 -65 l 122 -253 l 199 -253 z "},"ł":{"ha":465,"x_min":0,"x_max":0,"o":"m 511 699 l 357 640 l 357 1083 l 97 1083 l 97 542 l -47 486 l -47 306 l 97 361 l 97 0 l 357 0 l 357 460 l 511 518 z "},"m":{"ha":1438,"x_min":0,"x_max":0,"o":"m 1097 778 b 846 585 972 778 876 703 b 599 778 813 718 732 778 b 349 592 475 778 381 706 l 321 764 l 97 764 l 97 0 l 361 0 l 361 375 b 497 597 361 508 415 597 b 599 424 568 597 599 544 l 599 0 l 863 0 l 863 424 l 863 425 b 996 597 875 531 925 597 b 1097 424 1067 597 1097 544 l 1097 0 l 1361 0 l 1361 424 b 1097 778 1361 671 1275 778 z "},"n":{"ha":939,"x_min":0,"x_max":0,"o":"m 599 778 b 349 592 475 778 381 706 l 321 764 l 97 764 l 97 0 l 361 0 l 361 375 b 497 597 361 508 415 597 b 599 424 568 597 599 544 l 599 0 l 863 0 l 863 424 b 599 778 863 671 776 778 z "},"ń":{"ha":939,"x_min":0,"x_max":0,"o":"m 694 1083 l 472 1083 l 382 838 l 563 838 z m 599 778 b 349 592 475 778 381 706 l 321 764 l 97 764 l 97 0 l 361 0 l 361 375 b 497 597 361 508 415 597 b 599 424 568 597 599 544 l 599 0 l 863 0 l 863 424 b 599 778 863 671 776 778 z "},"ň":{"ha":939,"x_min":0,"x_max":0,"o":"m 594 838 l 713 1083 l 588 1083 l 483 967 l 379 1083 l 254 1083 l 372 838 z m 599 778 b 349 592 475 778 381 706 l 321 764 l 97 764 l 97 0 l 361 0 l 361 375 b 497 597 361 508 415 597 b 599 424 568 597 599 544 l 599 0 l 863 0 l 863 424 b 599 778 863 671 776 778 z "},"ņ":{"ha":939,"x_min":0,"x_max":0,"o":"m 599 778 b 349 592 475 778 381 706 l 321 764 l 97 764 l 97 0 l 361 0 l 361 375 b 497 597 361 508 415 597 b 599 424 568 597 599 544 l 599 0 l 863 0 l 863 424 b 599 778 863 671 776 778 z m 358 -253 l 435 -253 l 400 -421 l 497 -421 l 581 -197 l 581 -65 l 360 -65 z "},"ŋ":{"ha":939,"x_min":0,"x_max":0,"o":"m 599 778 b 349 592 475 778 381 706 l 321 764 l 97 764 l 97 0 l 361 0 l 361 375 b 497 597 361 508 415 597 b 599 424 568 597 599 544 l 599 56 b 514 -51 599 -22 569 -51 b 415 -42 486 -51 454 -47 l 415 -262 b 524 -278 454 -274 490 -278 b 863 56 729 -278 863 -164 l 863 424 b 599 778 863 671 776 778 z "},"ñ":{"ha":939,"x_min":0,"x_max":0,"o":"m 351 925 b 599 872 436 925 504 872 b 783 1075 708 872 783 961 l 686 1075 b 618 1015 681 1040 653 1015 b 369 1068 533 1015 464 1068 b 183 865 258 1068 183 979 l 281 865 b 351 925 286 900 317 925 z m 599 778 b 349 592 475 778 381 706 l 321 764 l 97 764 l 97 0 l 361 0 l 361 375 b 497 597 361 508 415 597 b 599 424 568 597 599 544 l 599 0 l 863 0 l 863 424 b 599 778 863 671 776 778 z "},"o":{"ha":869,"x_min":0,"x_max":0,"o":"m 435 -28 b 835 375 699 -28 835 110 b 435 778 835 640 699 778 b 35 375 171 778 35 640 b 435 -28 35 110 171 -28 z m 435 153 b 306 375 344 153 306 219 b 435 597 306 531 344 597 b 564 375 525 597 564 531 b 435 153 564 219 525 153 z "},"ó":{"ha":869,"x_min":0,"x_max":0,"o":"m 333 838 l 514 838 l 646 1083 l 424 1083 z m 435 -28 b 835 375 699 -28 835 110 b 435 778 835 640 699 778 b 35 375 171 778 35 640 b 435 -28 35 110 171 -28 z m 435 153 b 306 375 344 153 306 219 b 435 597 306 531 344 597 b 564 375 525 597 564 531 b 435 153 564 219 525 153 z "},"ô":{"ha":869,"x_min":0,"x_max":0,"o":"m 206 838 l 331 838 l 435 954 l 539 838 l 664 838 l 546 1083 l 324 1083 z m 435 -28 b 835 375 699 -28 835 110 b 435 778 835 640 699 778 b 35 375 171 778 35 640 b 435 -28 35 110 171 -28 z m 435 153 b 306 375 344 153 306 219 b 435 597 306 531 344 597 b 564 375 525 597 564 531 b 435 153 564 219 525 153 z "},"ö":{"ha":869,"x_min":0,"x_max":0,"o":"m 136 879 l 372 879 l 372 1069 l 136 1069 z m 497 879 l 733 879 l 733 1069 l 497 1069 z m 435 -28 b 835 375 699 -28 835 110 b 435 778 835 640 699 778 b 35 375 171 778 35 640 b 435 -28 35 110 171 -28 z m 435 153 b 306 375 344 153 306 219 b 435 597 306 531 344 597 b 564 375 525 597 564 531 b 435 153 564 219 525 153 z "},"ò":{"ha":869,"x_min":0,"x_max":0,"o":"m 358 838 l 539 838 l 449 1083 l 226 1083 z m 435 -28 b 835 375 699 -28 835 110 b 435 778 835 640 699 778 b 35 375 171 778 35 640 b 435 -28 35 110 171 -28 z m 435 153 b 306 375 344 153 306 219 b 435 597 306 531 344 597 b 564 375 525 597 564 531 b 435 153 564 219 525 153 z "},"ő":{"ha":869,"x_min":0,"x_max":0,"o":"m 201 838 l 354 838 l 472 1083 l 250 1083 z m 465 838 l 618 838 l 736 1083 l 514 1083 z m 435 -28 b 835 375 699 -28 835 110 b 435 778 835 640 699 778 b 35 375 171 778 35 640 b 435 -28 35 110 171 -28 z m 435 153 b 306 375 344 153 306 219 b 435 597 306 531 344 597 b 564 375 525 597 564 531 b 435 153 564 219 525 153 z "},"ō":{"ha":869,"x_min":0,"x_max":0,"o":"m 176 892 l 693 892 l 693 1036 l 176 1036 z m 435 -28 b 835 375 699 -28 835 110 b 435 778 835 640 699 778 b 35 375 171 778 35 640 b 435 -28 35 110 171 -28 z m 435 153 b 306 375 344 153 306 219 b 435 597 306 531 344 597 b 564 375 525 597 564 531 b 435 153 564 219 525 153 z "},"ø":{"ha":869,"x_min":0,"x_max":0,"o":"m 729 679 l 808 792 l 636 792 l 608 753 b 435 778 558 769 500 778 b 35 375 171 778 35 640 b 133 76 35 244 68 144 l 60 -28 l 232 -28 l 253 1 b 435 -28 304 -18 365 -28 b 835 375 699 -28 835 110 b 729 679 835 510 800 613 z m 306 375 b 435 597 306 531 344 597 b 492 585 457 597 475 593 l 307 324 b 306 375 306 340 306 357 z m 435 153 b 371 169 410 153 388 158 l 561 440 b 564 375 563 421 564 399 b 435 153 564 219 525 153 z "},"õ":{"ha":869,"x_min":0,"x_max":0,"o":"m 232 865 b 303 925 238 900 268 925 b 550 872 388 925 456 872 b 735 1075 660 872 735 961 l 638 1075 b 569 1015 632 1040 604 1015 b 321 1068 485 1015 415 1068 b 135 865 210 1068 135 979 z m 435 -28 b 835 375 699 -28 835 110 b 435 778 835 640 699 778 b 35 375 171 778 35 640 b 435 -28 35 110 171 -28 z m 435 153 b 306 375 344 153 306 219 b 435 597 306 531 344 597 b 564 375 525 597 564 531 b 435 153 564 219 525 153 z "},"œ":{"ha":1336,"x_min":0,"x_max":0,"o":"m 1301 418 b 931 778 1301 656 1174 778 b 682 701 825 778 742 751 b 435 778 622 751 539 778 b 35 375 171 778 35 640 b 435 -28 35 110 171 -28 b 682 49 539 -28 622 -1 b 931 -28 742 -1 825 -28 b 1296 239 1136 -28 1263 63 l 1049 239 b 925 153 1035 179 999 153 b 803 317 850 153 811 203 l 1296 317 b 1301 418 1300 347 1301 382 z m 435 153 b 306 375 344 153 306 219 b 435 597 306 531 344 597 b 564 375 525 597 564 531 b 435 153 564 219 525 153 z m 803 451 b 922 597 814 549 847 597 b 1053 451 1007 597 1051 547 z "},"p":{"ha":918,"x_min":0,"x_max":0,"o":"m 588 778 b 342 636 472 778 389 729 l 321 764 l 97 764 l 97 -278 l 361 -278 l 361 81 b 588 -28 411 8 486 -28 b 883 375 783 -28 883 110 b 588 778 883 640 783 778 z m 490 153 b 361 375 400 153 361 219 b 490 597 361 531 400 597 b 619 375 581 597 619 531 b 490 153 619 219 581 153 z "},"þ":{"ha":918,"x_min":0,"x_max":0,"o":"m 588 778 b 361 669 486 778 411 742 l 361 1083 l 97 1083 l 97 -278 l 361 -278 l 361 81 b 588 -28 411 8 486 -28 b 883 375 783 -28 883 110 b 588 778 883 640 783 778 z m 490 153 b 361 375 400 153 361 219 b 490 597 361 531 400 597 b 619 375 581 597 619 531 b 490 153 619 219 581 153 z "},"q":{"ha":929,"x_min":0,"x_max":0,"o":"m 597 764 l 576 636 b 331 778 529 729 446 778 b 35 375 135 778 35 640 b 331 -28 35 110 135 -28 b 557 81 432 -28 507 8 l 557 -278 l 821 -278 l 821 764 z m 428 153 b 299 375 338 153 299 219 b 428 597 299 531 338 597 b 557 375 518 597 557 531 b 428 153 557 219 518 153 z "},"r":{"ha":675,"x_min":0,"x_max":0,"o":"m 556 776 b 346 601 456 776 374 710 l 321 764 l 97 764 l 97 0 l 361 0 l 361 333 b 550 582 361 503 425 582 b 675 550 597 582 643 569 l 675 750 b 556 776 644 765 600 776 z "},"ŕ":{"ha":675,"x_min":0,"x_max":0,"o":"m 574 1083 l 351 1083 l 261 838 l 442 838 z m 556 776 b 346 601 456 776 374 710 l 321 764 l 97 764 l 97 0 l 361 0 l 361 333 b 550 582 361 503 425 582 b 675 550 597 582 643 569 l 675 750 b 556 776 644 765 600 776 z "},"ř":{"ha":675,"x_min":0,"x_max":0,"o":"m 474 838 l 592 1083 l 467 1083 l 363 967 l 258 1083 l 133 1083 l 251 838 z m 556 776 b 346 601 456 776 374 710 l 321 764 l 97 764 l 97 0 l 361 0 l 361 333 b 550 582 361 503 425 582 b 675 550 597 582 643 569 l 675 750 b 556 776 644 765 600 776 z "},"ŗ":{"ha":675,"x_min":0,"x_max":0,"o":"m 556 776 b 346 601 456 776 374 710 l 321 764 l 97 764 l 97 0 l 361 0 l 361 333 b 550 582 361 503 425 582 b 675 550 597 582 643 569 l 675 750 b 556 776 644 765 600 776 z m 238 -253 l 314 -253 l 279 -421 l 376 -421 l 460 -197 l 460 -65 l 239 -65 z "},"s":{"ha":789,"x_min":0,"x_max":0,"o":"m 400 -33 b 747 222 631 -33 746 49 b 428 481 746 424 574 451 b 299 551 338 499 299 510 b 385 604 299 586 325 604 b 481 514 457 604 481 572 l 721 514 b 382 783 721 685 608 783 b 61 543 179 783 61 701 b 349 293 61 357 225 317 b 508 214 461 272 508 263 b 406 154 508 179 481 154 b 282 263 311 154 282 189 l 42 263 b 400 -33 42 64 146 -33 z "},"ś":{"ha":789,"x_min":0,"x_max":0,"o":"m 293 838 l 474 838 l 606 1083 l 383 1083 z m 400 -33 b 747 222 631 -33 746 49 b 428 481 746 424 574 451 b 299 551 338 499 299 510 b 385 604 299 586 325 604 b 481 514 457 604 481 572 l 721 514 b 382 783 721 685 608 783 b 61 543 179 783 61 701 b 349 293 61 357 225 317 b 508 214 461 272 508 263 b 406 154 508 179 481 154 b 282 263 311 154 282 189 l 42 263 b 400 -33 42 64 146 -33 z "},"š":{"ha":789,"x_min":0,"x_max":0,"o":"m 283 838 l 506 838 l 624 1083 l 499 1083 l 394 967 l 290 1083 l 165 1083 z m 400 -33 b 747 222 631 -33 746 49 b 428 481 746 424 574 451 b 299 551 338 499 299 510 b 385 604 299 586 325 604 b 481 514 457 604 481 572 l 721 514 b 382 783 721 685 608 783 b 61 543 179 783 61 701 b 349 293 61 357 225 317 b 508 214 461 272 508 263 b 406 154 508 179 481 154 b 282 263 311 154 282 189 l 42 263 b 400 -33 42 64 146 -33 z "},"ş":{"ha":789,"x_min":0,"x_max":0,"o":"m 747 222 b 428 481 746 424 574 451 b 299 551 338 499 299 510 b 385 604 299 586 325 604 b 481 514 457 604 481 572 l 721 514 b 382 783 721 685 608 783 b 61 543 179 783 61 701 b 349 293 61 357 225 317 b 508 214 461 272 508 263 b 406 154 508 179 481 154 b 282 263 311 154 282 189 l 42 263 b 346 -32 42 79 131 -18 l 314 -117 l 333 -135 b 443 -181 411 -137 443 -158 b 397 -207 443 -203 424 -207 b 279 -169 357 -207 306 -192 l 249 -250 b 401 -300 283 -283 343 -300 b 560 -178 482 -300 560 -257 b 424 -61 560 -118 511 -75 l 443 -32 b 747 222 644 -22 746 60 z "},"ș":{"ha":789,"x_min":0,"x_max":0,"o":"m 400 -33 b 747 222 631 -33 746 49 b 428 481 746 424 574 451 b 299 551 338 499 299 510 b 385 604 299 586 325 604 b 481 514 457 604 481 572 l 721 514 b 382 783 721 685 608 783 b 61 543 179 783 61 701 b 349 293 61 357 225 317 b 508 214 461 272 508 263 b 406 154 508 179 481 154 b 282 263 311 154 282 189 l 42 263 b 400 -33 42 64 146 -33 z m 339 -421 l 436 -421 l 519 -197 l 519 -65 l 299 -65 l 297 -253 l 374 -253 z "},"ß":{"ha":976,"x_min":0,"x_max":0,"o":"m 660 565 b 801 842 660 657 801 682 b 447 1114 801 1019 649 1114 b 97 806 215 1114 97 990 l 97 764 l 0 764 l 0 597 l 97 597 l 97 0 l 361 0 l 361 806 b 453 928 361 876 383 928 b 551 840 511 928 551 890 b 415 542 551 722 415 700 b 717 219 415 321 717 328 b 607 153 717 171 668 153 b 454 182 554 153 506 164 l 449 -6 b 644 -28 524 -19 581 -28 b 968 217 836 -28 968 42 b 660 565 968 457 660 446 z "},"t":{"ha":624,"x_min":0,"x_max":0,"o":"m 589 597 l 589 764 l 399 764 l 399 986 l 201 986 l 160 764 l 14 764 l 14 597 l 139 597 l 139 219 b 385 -28 139 71 235 -28 b 589 4 469 -28 550 -15 l 589 185 b 488 172 556 178 515 172 b 399 267 425 172 399 200 l 399 597 z "},"ŧ":{"ha":624,"x_min":0,"x_max":0,"o":"m 589 597 l 589 764 l 399 764 l 399 986 l 201 986 l 160 764 l 14 764 l 14 597 l 139 597 l 139 468 l 22 468 l 22 324 l 139 324 l 139 219 b 385 -28 139 71 235 -28 b 589 4 469 -28 550 -15 l 589 185 b 488 172 556 178 515 172 b 399 267 425 172 399 200 l 399 324 l 578 324 l 578 468 l 399 468 l 399 597 z "},"ť":{"ha":624,"x_min":0,"x_max":0,"o":"m 463 1083 l 446 821 l 594 821 l 661 1083 z m 399 986 l 201 986 l 160 764 l 14 764 l 14 597 l 139 597 l 139 219 b 385 -28 139 71 235 -28 b 589 4 469 -28 550 -15 l 589 185 b 488 172 556 178 515 172 b 399 267 425 172 399 200 l 399 597 l 589 597 l 589 764 l 399 764 z "},"ţ":{"ha":624,"x_min":0,"x_max":0,"o":"m 589 597 l 589 764 l 399 764 l 399 986 l 201 986 l 160 764 l 14 764 l 14 597 l 139 597 l 139 219 b 310 -18 139 97 204 10 l 274 -117 l 293 -135 b 403 -181 371 -137 403 -158 b 357 -207 403 -203 383 -207 b 239 -169 317 -207 265 -192 l 208 -250 b 361 -300 243 -283 303 -300 b 519 -178 442 -300 519 -257 b 383 -61 519 -118 471 -75 l 406 -28 b 589 4 482 -25 553 -14 l 589 185 b 488 172 556 178 515 172 b 399 267 425 172 399 200 l 399 597 z "},"ț":{"ha":624,"x_min":0,"x_max":0,"o":"m 589 597 l 589 764 l 399 764 l 399 986 l 201 986 l 160 764 l 14 764 l 14 597 l 139 597 l 139 219 b 385 -28 139 71 235 -28 b 589 4 469 -28 550 -15 l 589 185 b 488 172 556 178 515 172 b 399 267 425 172 399 200 l 399 597 z m 257 -253 l 333 -253 l 299 -421 l 396 -421 l 479 -197 l 479 -65 l 258 -65 z "},"u":{"ha":932,"x_min":0,"x_max":0,"o":"m 571 764 l 571 389 b 435 167 571 256 517 167 b 333 340 364 167 333 219 l 333 764 l 69 764 l 69 340 b 333 -14 69 93 156 -14 b 583 172 457 -14 551 58 l 611 0 l 835 0 l 835 764 z "},"ú":{"ha":932,"x_min":0,"x_max":0,"o":"m 664 1083 l 442 1083 l 351 838 l 532 838 z m 571 764 l 571 389 b 435 167 571 256 517 167 b 333 340 364 167 333 219 l 333 764 l 69 764 l 69 340 b 333 -14 69 93 156 -14 b 583 172 457 -14 551 58 l 611 0 l 835 0 l 835 764 z "},"ǔ":{"ha":932,"x_min":0,"x_max":0,"o":"m 564 838 l 682 1083 l 557 1083 l 453 967 l 349 1083 l 224 1083 l 342 838 z m 571 764 l 571 389 b 435 167 571 256 517 167 b 333 340 364 167 333 219 l 333 764 l 69 764 l 69 340 b 333 -14 69 93 156 -14 b 583 172 457 -14 551 58 l 611 0 l 835 0 l 835 764 z "},"û":{"ha":932,"x_min":0,"x_max":0,"o":"m 453 954 l 557 838 l 682 838 l 564 1083 l 342 1083 l 224 838 l 349 838 z m 571 764 l 571 389 b 435 167 571 256 517 167 b 333 340 364 167 333 219 l 333 764 l 69 764 l 69 340 b 333 -14 69 93 156 -14 b 583 172 457 -14 551 58 l 611 0 l 835 0 l 835 764 z "},"ü":{"ha":932,"x_min":0,"x_max":0,"o":"m 390 1069 l 154 1069 l 154 879 l 390 879 z m 751 1069 l 515 1069 l 515 879 l 751 879 z m 571 764 l 571 389 b 435 167 571 256 517 167 b 333 340 364 167 333 219 l 333 764 l 69 764 l 69 340 b 333 -14 69 93 156 -14 b 583 172 457 -14 551 58 l 611 0 l 835 0 l 835 764 z "},"ù":{"ha":932,"x_min":0,"x_max":0,"o":"m 557 838 l 467 1083 l 244 1083 l 376 838 z m 571 764 l 571 389 b 435 167 571 256 517 167 b 333 340 364 167 333 219 l 333 764 l 69 764 l 69 340 b 333 -14 69 93 156 -14 b 583 172 457 -14 551 58 l 611 0 l 835 0 l 835 764 z "},"ű":{"ha":932,"x_min":0,"x_max":0,"o":"m 490 1083 l 268 1083 l 219 838 l 372 838 z m 636 838 l 754 1083 l 532 1083 l 483 838 z m 571 764 l 571 389 b 435 167 571 256 517 167 b 333 340 364 167 333 219 l 333 764 l 69 764 l 69 340 b 333 -14 69 93 156 -14 b 583 172 457 -14 551 58 l 611 0 l 835 0 l 835 764 z "},"ū":{"ha":932,"x_min":0,"x_max":0,"o":"m 711 1036 l 194 1036 l 194 892 l 711 892 z m 571 764 l 571 389 b 435 167 571 256 517 167 b 333 340 364 167 333 219 l 333 764 l 69 764 l 69 340 b 333 -14 69 93 156 -14 b 583 172 457 -14 551 58 l 611 0 l 835 0 l 835 764 z "},"ų":{"ha":932,"x_min":0,"x_max":0,"o":"m 761 -171 b 686 -114 721 -171 686 -156 b 835 0 686 -58 746 -17 l 835 764 l 571 764 l 571 389 b 435 167 571 256 517 167 b 333 340 364 167 333 219 l 333 764 l 69 764 l 69 340 b 333 -14 69 93 156 -14 b 583 172 457 -14 551 58 l 611 0 l 665 0 b 565 -146 603 -31 565 -81 b 719 -278 565 -232 639 -278 b 863 -224 769 -278 824 -260 l 863 -143 b 761 -171 835 -160 796 -171 z "},"ů":{"ha":932,"x_min":0,"x_max":0,"o":"m 453 811 b 639 974 569 811 639 874 b 453 1135 639 1074 569 1135 b 265 974 338 1135 265 1074 b 453 811 265 874 338 811 z m 453 1040 b 514 974 490 1040 514 1015 b 453 907 514 933 490 907 b 390 974 414 907 390 933 b 453 1040 390 1015 414 1040 z m 571 764 l 571 389 b 435 167 571 256 517 167 b 333 340 364 167 333 219 l 333 764 l 69 764 l 69 340 b 333 -14 69 93 156 -14 b 583 172 457 -14 551 58 l 611 0 l 835 0 l 835 764 z "},"v":{"ha":875,"x_min":0,"x_max":0,"o":"m 275 0 l 603 0 l 868 764 l 600 764 l 446 206 l 288 764 l 7 764 z "},"w":{"ha":1338,"x_min":0,"x_max":0,"o":"m 199 0 l 529 0 l 667 532 l 781 0 l 1142 0 l 1324 764 l 1067 764 l 965 178 l 838 764 l 533 764 l 393 179 l 290 764 l 14 764 z "},"ẃ":{"ha":1338,"x_min":0,"x_max":0,"o":"m 582 838 l 763 838 l 894 1083 l 672 1083 z m 199 0 l 529 0 l 667 532 l 781 0 l 1142 0 l 1324 764 l 1067 764 l 965 178 l 838 764 l 533 764 l 393 179 l 290 764 l 14 764 z "},"ŵ":{"ha":1338,"x_min":0,"x_max":0,"o":"m 454 838 l 579 838 l 683 954 l 788 838 l 913 838 l 794 1083 l 572 1083 z m 199 0 l 529 0 l 667 532 l 781 0 l 1142 0 l 1324 764 l 1067 764 l 965 178 l 838 764 l 533 764 l 393 179 l 290 764 l 14 764 z "},"ẅ":{"ha":1338,"x_min":0,"x_max":0,"o":"m 385 879 l 621 879 l 621 1069 l 385 1069 z m 746 879 l 982 879 l 982 1069 l 746 1069 z m 199 0 l 529 0 l 667 532 l 781 0 l 1142 0 l 1324 764 l 1067 764 l 965 178 l 838 764 l 533 764 l 393 179 l 290 764 l 14 764 z "},"ẁ":{"ha":1338,"x_min":0,"x_max":0,"o":"m 607 838 l 788 838 l 697 1083 l 475 1083 z m 199 0 l 529 0 l 667 532 l 781 0 l 1142 0 l 1324 764 l 1067 764 l 965 178 l 838 764 l 533 764 l 393 179 l 290 764 l 14 764 z "},"x":{"ha":863,"x_min":0,"x_max":0,"o":"m 849 0 l 568 406 l 843 764 l 579 764 l 449 576 l 319 764 l 31 764 l 290 390 l 0 0 l 278 0 l 418 204 l 560 0 z "},"y":{"ha":881,"x_min":0,"x_max":0,"o":"m 224 -278 l 496 -278 l 874 764 l 599 764 l 460 256 l 310 764 l 7 764 l 336 -7 z "},"ý":{"ha":881,"x_min":0,"x_max":0,"o":"m 357 838 l 538 838 l 669 1083 l 447 1083 z m 224 -278 l 496 -278 l 874 764 l 599 764 l 460 256 l 310 764 l 7 764 l 336 -7 z "},"ŷ":{"ha":881,"x_min":0,"x_max":0,"o":"m 229 838 l 354 838 l 458 954 l 563 838 l 688 838 l 569 1083 l 347 1083 z m 224 -278 l 496 -278 l 874 764 l 599 764 l 460 256 l 310 764 l 7 764 l 336 -7 z "},"ÿ":{"ha":881,"x_min":0,"x_max":0,"o":"m 160 879 l 396 879 l 396 1069 l 160 1069 z m 521 879 l 757 879 l 757 1069 l 521 1069 z m 224 -278 l 496 -278 l 874 764 l 599 764 l 460 256 l 310 764 l 7 764 l 336 -7 z "},"ỳ":{"ha":881,"x_min":0,"x_max":0,"o":"m 382 838 l 563 838 l 472 1083 l 250 1083 z m 224 -278 l 496 -278 l 874 764 l 599 764 l 460 256 l 310 764 l 7 764 l 336 -7 z "},"z":{"ha":696,"x_min":0,"x_max":0,"o":"m 335 167 l 657 626 l 657 764 l 32 764 l 32 597 l 349 597 l 21 126 l 21 0 l 675 0 l 675 167 z "},"ź":{"ha":696,"x_min":0,"x_max":0,"o":"m 560 1083 l 338 1083 l 247 838 l 428 838 z m 335 167 l 657 626 l 657 764 l 32 764 l 32 597 l 349 597 l 21 126 l 21 0 l 675 0 l 675 167 z "},"ž":{"ha":696,"x_min":0,"x_max":0,"o":"m 460 838 l 578 1083 l 453 1083 l 349 967 l 244 1083 l 119 1083 l 238 838 z m 335 167 l 657 626 l 657 764 l 32 764 l 32 597 l 349 597 l 21 126 l 21 0 l 675 0 l 675 167 z "},"ż":{"ha":696,"x_min":0,"x_max":0,"o":"m 481 1083 l 217 1083 l 217 865 l 481 865 z m 335 167 l 657 626 l 657 764 l 32 764 l 32 597 l 349 597 l 21 126 l 21 0 l 675 0 l 675 167 z "},"ﬁ":{"ha":1031,"x_min":0,"x_max":0,"o":"m 97 833 l 97 764 l 0 764 l 0 597 l 97 597 l 97 0 l 361 0 l 361 597 l 571 597 l 571 764 l 361 764 l 361 819 b 463 928 361 885 399 928 b 600 896 508 928 563 915 l 600 1083 b 392 1114 549 1101 465 1114 b 97 833 215 1114 97 1001 z m 669 1083 l 669 865 l 933 865 l 933 1083 z m 669 0 l 933 0 l 933 764 l 669 764 z "},"ﬂ":{"ha":1038,"x_min":0,"x_max":0,"o":"m 97 833 l 97 764 l 0 764 l 0 597 l 97 597 l 97 0 l 361 0 l 361 597 l 571 597 l 571 764 l 361 764 l 361 819 b 463 928 361 885 399 928 b 600 896 508 928 563 915 l 600 1083 b 392 1114 549 1101 465 1114 b 97 833 215 1114 97 1001 z m 669 1083 l 669 0 l 929 0 l 929 1083 z "},"ª":{"ha":583,"x_min":0,"x_max":0,"o":"m 549 496 b 531 650 538 536 531 589 l 531 801 b 286 1014 531 942 449 1014 b 53 824 132 1014 53 949 l 224 824 b 289 883 224 865 244 883 b 354 801 335 883 354 858 l 354 789 l 260 783 b 35 632 110 774 35 721 b 215 476 35 529 96 476 b 375 563 290 476 347 508 b 388 496 376 535 381 513 z m 271 601 b 219 646 240 601 219 617 b 278 693 219 679 240 688 l 354 703 l 354 649 b 271 601 340 617 314 601 z "},"º":{"ha":589,"x_min":0,"x_max":0,"o":"m 294 476 b 561 746 471 476 561 568 b 294 1014 561 922 471 1014 b 28 746 118 1014 28 922 b 294 476 28 568 118 476 z m 294 607 b 218 746 242 607 218 649 b 294 883 218 842 242 883 b 371 746 347 883 371 842 b 294 607 371 649 347 607 z "},"Δ":{"ha":986,"x_min":0,"x_max":0,"o":"m 35 0 l 951 0 l 951 139 l 688 986 l 296 986 l 35 139 z m 332 201 l 492 792 l 651 201 z "},"Ω":{"ha":1031,"x_min":0,"x_max":0,"o":"m 996 521 b 515 1014 996 847 832 1014 b 35 521 199 1014 35 847 b 213 156 35 358 104 235 l 35 167 l 35 0 l 474 0 l 474 144 b 326 511 378 224 326 319 b 515 785 326 685 386 785 b 704 510 643 785 704 685 b 557 144 704 319 653 225 l 557 0 l 996 0 l 996 167 l 818 156 b 996 521 926 235 996 358 z "},"μ":{"ha":904,"x_min":0,"x_max":0,"o":"m 863 0 b 835 232 844 61 835 140 l 835 764 l 571 764 l 571 389 b 435 167 571 256 517 167 b 333 340 364 167 333 219 l 333 764 l 69 764 l 69 -278 l 306 -278 l 238 15 b 333 -14 267 -4 300 -14 b 585 178 458 -14 554 61 b 621 0 585 101 604 40 z "},"π":{"ha":833,"x_min":0,"x_max":0,"o":"m 104 0 l 313 0 l 340 597 l 507 597 l 507 385 b 542 0 507 263 517 108 l 753 0 b 707 385 725 94 707 249 l 707 597 l 826 597 l 826 764 l 7 764 l 7 597 l 139 597 z "},"¹":{"ha":424,"x_min":0,"x_max":0,"o":"m 219 986 b 14 926 165 944 83 919 l 14 788 b 163 821 63 782 118 789 l 163 493 l 333 493 l 333 986 z "},"²":{"ha":550,"x_min":0,"x_max":0,"o":"m 49 493 l 486 493 l 486 628 l 290 613 l 289 622 b 488 839 424 672 488 742 b 268 999 488 938 403 999 b 42 783 121 999 42 924 l 201 783 b 261 867 201 831 214 867 b 318 810 310 867 318 843 b 49 600 318 756 253 700 z "},"³":{"ha":526,"x_min":0,"x_max":0,"o":"m 260 481 b 485 633 408 481 485 536 b 403 744 485 674 456 722 b 479 838 454 761 479 804 b 260 999 479 938 401 999 b 33 804 114 999 33 932 l 203 804 b 257 860 203 839 221 860 b 304 815 286 860 304 843 b 258 776 304 790 286 776 l 174 776 l 174 694 l 261 694 b 313 657 292 694 313 681 b 260 619 313 631 296 619 b 193 665 218 619 193 636 l 21 665 b 260 481 21 543 103 481 z "},"⁴":{"ha":514,"x_min":0,"x_max":0,"o":"m 272 493 l 439 493 l 439 569 l 493 569 l 493 690 l 439 690 l 439 986 l 246 986 l 7 669 l 7 569 l 272 569 z m 163 690 l 268 836 l 268 690 z "},"⁄":{"ha":929,"x_min":0,"x_max":0,"o":"m 35 0 l 219 0 l 894 986 l 711 986 z "},"½":{"ha":1151,"x_min":0,"x_max":0,"o":"m 190 821 l 190 493 l 361 493 l 361 986 l 247 986 b 42 926 193 944 111 919 l 42 788 b 190 821 90 782 146 789 z m 774 986 l 97 0 l 282 0 l 957 986 z m 863 129 b 1061 346 997 179 1061 249 b 842 506 1061 444 976 506 b 615 290 694 506 615 431 l 775 290 b 835 374 775 338 788 374 b 892 317 883 374 892 350 b 622 107 892 263 826 207 l 622 0 l 1060 0 l 1060 135 l 864 119 z "},"¼":{"ha":1092,"x_min":0,"x_max":0,"o":"m 190 821 l 190 493 l 361 493 l 361 986 l 247 986 b 42 926 193 944 111 919 l 42 788 b 190 821 90 782 146 789 z m 774 986 l 97 0 l 282 0 l 957 986 z m 975 197 l 975 493 l 782 493 l 543 176 l 543 76 l 808 76 l 808 0 l 975 0 l 975 76 l 1029 76 l 1029 197 z m 804 197 l 699 197 l 804 343 z "},"¾":{"ha":1203,"x_min":0,"x_max":0,"o":"m 288 481 b 513 633 436 481 513 536 b 431 744 513 674 483 722 b 507 838 482 761 507 804 b 288 999 507 938 429 999 b 61 804 142 999 61 932 l 231 804 b 285 860 231 839 249 860 b 332 815 314 860 332 843 b 286 776 332 790 314 776 l 201 776 l 201 694 l 289 694 b 340 657 319 694 340 681 b 288 619 340 631 324 619 b 221 665 246 619 221 636 l 49 665 b 288 481 49 543 131 481 z m 208 0 l 393 0 l 1068 986 l 885 986 z m 919 0 l 1086 0 l 1086 76 l 1140 76 l 1140 197 l 1086 197 l 1086 493 l 893 493 l 654 176 l 654 76 l 919 76 z m 810 197 l 915 343 l 915 197 z "},".":{"ha":403,"x_min":0,"x_max":0,"o":"m 83 0 l 319 0 l 319 222 l 83 222 z "},",":{"ha":403,"x_min":0,"x_max":0,"o":"m 69 -236 l 196 -236 l 319 21 l 319 222 l 83 222 l 83 0 l 161 0 z "},":":{"ha":403,"x_min":0,"x_max":0,"o":"m 83 542 l 319 542 l 319 764 l 83 764 z m 83 0 l 319 0 l 319 222 l 83 222 z "},";":{"ha":403,"x_min":0,"x_max":0,"o":"m 83 542 l 319 542 l 319 764 l 83 764 z m 69 -236 l 196 -236 l 319 21 l 319 222 l 83 222 l 83 0 l 161 0 z "},"…":{"ha":1125,"x_min":0,"x_max":0,"o":"m 83 0 l 319 0 l 319 222 l 83 222 z m 444 0 l 681 0 l 681 222 l 444 222 z m 806 0 l 1042 0 l 1042 222 l 806 222 z "},"!":{"ha":403,"x_min":0,"x_max":0,"o":"m 132 319 l 271 319 l 319 764 l 319 986 l 83 986 l 83 764 z m 83 0 l 319 0 l 319 222 l 83 222 z "},"¡":{"ha":403,"x_min":0,"x_max":0,"o":"m 83 542 l 319 542 l 319 764 l 83 764 z m 83 -222 l 319 -222 l 319 0 l 271 444 l 132 444 l 83 0 z "},"?":{"ha":656,"x_min":0,"x_max":0,"o":"m 247 319 l 400 319 l 400 346 b 635 725 400 472 635 478 b 324 1013 635 908 522 1013 b 7 663 121 1013 7 886 l 208 663 b 324 825 208 774 246 825 b 433 711 399 825 433 789 b 247 381 433 596 247 535 z m 206 0 l 442 0 l 442 222 l 206 222 z "},"¿":{"ha":656,"x_min":0,"x_max":0,"o":"m 214 542 l 450 542 l 450 764 l 214 764 z m 332 -249 b 649 101 535 -249 649 -122 l 447 101 b 332 -61 447 -10 410 -61 b 222 53 257 -61 222 -25 b 408 383 222 168 408 229 l 408 444 l 256 444 l 256 418 b 21 39 256 292 21 286 b 332 -249 21 -144 133 -249 z "},"·":{"ha":514,"x_min":0,"x_max":0,"o":"m 139 410 l 375 410 l 375 632 l 139 632 z "},"•":{"ha":597,"x_min":0,"x_max":0,"o":"m 139 382 l 458 382 l 458 688 l 139 688 z "},"*":{"ha":649,"x_min":0,"x_max":0,"o":"m 214 368 l 324 572 l 435 368 l 581 474 l 419 643 l 649 685 l 593 856 l 383 754 l 414 986 l 233 986 l 264 756 l 56 856 l 0 683 l 228 642 l 68 474 z "},"#":{"ha":842,"x_min":0,"x_max":0,"o":"m 810 528 l 835 685 l 701 685 l 733 875 l 575 875 l 543 685 l 382 685 l 414 875 l 256 875 l 224 685 l 85 685 l 60 528 l 199 528 l 167 338 l 32 338 l 7 181 l 140 181 l 111 0 l 269 0 l 299 181 l 460 181 l 431 0 l 589 0 l 618 181 l 757 181 l 782 338 l 644 338 l 676 528 z m 486 338 l 325 338 l 357 528 l 518 528 z "},"/":{"ha":714,"x_min":0,"x_max":0,"o":"m 0 -278 l 228 -278 l 714 1111 l 486 1111 z "},"\\":{"ha":714,"x_min":0,"x_max":0,"o":"m 486 -278 l 714 -278 l 228 1111 l 0 1111 z "},"(":{"ha":568,"x_min":0,"x_max":0,"o":"m 318 -139 l 519 -139 b 361 494 418 38 361 267 b 519 1111 361 722 418 944 l 318 1111 b 125 492 194 954 125 732 b 318 -139 125 251 194 25 z "},")":{"ha":569,"x_min":0,"x_max":0,"o":"m 49 -139 l 250 -139 b 443 492 374 25 443 251 b 250 1111 443 732 374 954 l 49 1111 b 207 494 150 944 207 722 b 49 -139 207 267 150 38 z "},"{":{"ha":582,"x_min":0,"x_max":0,"o":"m 335 -139 l 540 -139 l 540 -7 l 442 -7 b 365 61 396 -7 365 21 b 369 349 365 160 369 242 b 286 486 369 406 336 461 b 369 624 336 511 369 567 b 365 913 369 731 365 814 b 442 981 365 953 396 981 l 540 981 l 540 1113 l 335 1113 b 154 947 226 1113 154 1046 b 161 624 154 836 161 736 b 42 521 161 563 114 521 l 42 451 b 161 349 114 451 161 410 b 154 26 161 236 154 138 b 335 -139 154 -72 226 -139 z "},"}":{"ha":582,"x_min":0,"x_max":0,"o":"m 42 -139 l 247 -139 b 428 26 356 -139 428 -72 b 421 349 428 138 421 236 b 540 451 421 410 468 451 l 540 521 b 421 624 468 521 421 563 b 428 947 421 736 428 836 b 247 1113 428 1046 356 1113 l 42 1113 l 42 981 l 140 981 b 217 913 186 981 217 953 b 213 624 217 814 213 731 b 296 486 213 567 246 511 b 213 349 246 461 213 406 b 217 61 213 242 217 160 b 140 -7 217 21 186 -7 l 42 -7 z "},"[":{"ha":590,"x_min":0,"x_max":0,"o":"m 167 -139 l 549 -139 l 549 -7 l 389 -7 l 389 979 l 549 979 l 549 1111 l 167 1111 z "},"]":{"ha":590,"x_min":0,"x_max":0,"o":"m 42 -139 l 424 -139 l 424 1111 l 42 1111 l 42 979 l 201 979 l 201 -7 l 42 -7 z "},"-":{"ha":639,"x_min":0,"x_max":0,"o":"m 69 460 l 569 460 l 569 626 l 69 626 z "},"­":{"ha":833,"x_min":0,"x_max":0,"o":"m 69 460 l 569 460 l 569 626 l 69 626 z "},"–":{"ha":1028,"x_min":0,"x_max":0,"o":"m 69 418 l 958 418 l 958 585 l 69 585 z "},"—":{"ha":1319,"x_min":0,"x_max":0,"o":"m 69 418 l 1250 418 l 1250 585 l 69 585 z "},"_":{"ha":778,"x_min":0,"x_max":0,"o":"m 14 -208 l 764 -208 l 764 -69 l 14 -69 z "},"‚":{"ha":403,"x_min":0,"x_max":0,"o":"m 69 -236 l 196 -236 l 319 21 l 319 222 l 83 222 l 83 0 l 161 0 z "},"„":{"ha":750,"x_min":0,"x_max":0,"o":"m 69 -236 l 196 -236 l 319 21 l 319 222 l 83 222 l 83 0 l 161 0 z m 417 -236 l 543 -236 l 667 21 l 667 222 l 431 222 l 431 0 l 508 0 z "},"“":{"ha":708,"x_min":0,"x_max":0,"o":"m 83 625 l 319 625 l 319 847 l 242 847 l 333 1083 l 207 1083 l 83 826 z m 389 625 l 625 625 l 625 847 l 547 847 l 639 1083 l 513 1083 l 389 826 z "},"”":{"ha":708,"x_min":0,"x_max":0,"o":"m 69 625 l 196 625 l 319 882 l 319 1083 l 83 1083 l 83 861 l 161 861 z m 375 625 l 501 625 l 625 882 l 625 1083 l 389 1083 l 389 861 l 467 861 z "},"‘":{"ha":403,"x_min":0,"x_max":0,"o":"m 83 625 l 319 625 l 319 847 l 242 847 l 333 1083 l 207 1083 l 83 826 z "},"’":{"ha":403,"x_min":0,"x_max":0,"o":"m 69 625 l 196 625 l 319 882 l 319 1083 l 83 1083 l 83 861 l 161 861 z "},"«":{"ha":933,"x_min":0,"x_max":0,"o":"m 579 764 l 313 764 l 14 382 l 313 0 l 579 0 l 285 383 z m 926 764 l 660 764 l 361 382 l 660 0 l 926 0 l 632 383 z "},"»":{"ha":933,"x_min":0,"x_max":0,"o":"m 274 764 l 7 764 l 301 383 l 7 0 l 274 0 l 572 382 z m 621 764 l 354 764 l 649 383 l 354 0 l 621 0 l 919 382 z "},"‹":{"ha":586,"x_min":0,"x_max":0,"o":"m 579 764 l 313 764 l 14 382 l 313 0 l 579 0 l 285 383 z "},"›":{"ha":586,"x_min":0,"x_max":0,"o":"m 274 764 l 7 764 l 301 383 l 7 0 l 274 0 l 572 382 z "},"\"":{"ha":597,"x_min":0,"x_max":0,"o":"m 125 708 l 222 708 l 264 917 l 264 1083 l 83 1083 l 83 917 z m 375 708 l 472 708 l 514 917 l 514 1083 l 333 1083 l 333 917 z "},"'":{"ha":347,"x_min":0,"x_max":0,"o":"m 125 708 l 222 708 l 264 917 l 264 1083 l 83 1083 l 83 917 z "}," ":{"ha":347,"x_min":0,"x_max":0,"o":""},"¢":{"ha":786,"x_min":0,"x_max":0,"o":"m 772 378 l 525 378 b 428 264 513 299 483 264 b 299 486 338 264 299 331 b 428 708 299 642 338 708 b 525 608 474 708 515 678 l 768 608 b 504 885 740 769 650 863 l 504 1111 l 310 1111 l 310 876 b 35 486 128 838 35 706 b 310 96 35 267 128 135 l 310 -125 l 504 -125 l 504 89 b 772 378 650 111 744 210 z "},"¤":{"ha":847,"x_min":0,"x_max":0,"o":"m 833 181 l 708 294 b 761 493 742 347 761 415 b 707 693 761 571 742 639 l 832 807 l 736 903 l 624 778 b 424 833 569 814 501 833 b 219 781 344 833 275 815 l 110 901 l 14 806 l 132 697 b 72 493 93 643 72 574 b 133 286 72 411 94 342 l 15 179 l 111 83 l 221 204 b 424 153 276 171 344 153 b 624 208 501 153 569 172 l 738 85 z m 424 303 b 261 493 319 303 261 371 b 424 683 261 615 319 683 b 572 493 518 683 572 615 b 424 303 572 371 518 303 z "},"$":{"ha":906,"x_min":0,"x_max":0,"o":"m 864 288 b 518 607 864 514 669 568 b 314 725 406 633 314 656 b 432 807 314 782 353 807 b 589 674 540 807 589 763 l 843 674 b 553 1007 843 867 744 979 l 553 1111 l 344 1111 l 344 1007 b 54 710 153 982 54 882 b 379 414 54 500 233 451 b 599 288 499 385 599 361 b 457 190 599 219 554 190 b 303 339 360 190 303 235 l 35 339 b 344 -21 35 129 140 8 l 344 -153 l 553 -153 l 553 -21 b 864 288 758 6 864 111 z "},"€":{"ha":1008,"x_min":0,"x_max":0,"o":"m 515 201 b 344 332 426 201 371 242 l 550 332 l 571 471 l 326 471 b 326 493 326 478 326 486 l 326 513 l 581 513 l 597 651 l 344 651 b 515 785 369 743 425 785 b 685 604 610 785 661 731 l 981 604 b 529 1014 947 875 793 1014 b 49 651 257 1014 96 892 l -6 651 l -22 513 l 35 513 b 35 493 35 506 35 500 l 35 471 l -25 471 l -42 332 l 49 332 b 529 -28 96 93 258 -28 b 981 381 793 -28 947 111 l 685 381 b 515 201 663 256 611 201 z "},"ƒ":{"ha":808,"x_min":0,"x_max":0,"o":"m 606 828 b 753 796 656 828 714 815 l 774 983 b 554 1014 721 1001 633 1014 b 228 719 364 1014 247 901 l 222 664 l 111 664 l 94 497 l 204 497 l 161 100 b 18 -50 149 -19 119 -50 l 0 -236 b 422 58 264 -236 403 -118 l 469 497 l 682 497 l 697 664 l 488 664 l 493 719 b 606 828 500 785 542 828 z "},"£":{"ha":851,"x_min":0,"x_max":0,"o":"m 356 408 l 671 408 l 688 547 l 347 547 b 326 708 339 592 326 640 b 456 831 326 792 368 831 b 590 669 547 831 590 779 l 838 669 b 446 1014 838 876 694 1014 b 63 708 215 1014 63 892 b 76 547 63 654 69 601 l -4 547 l -21 408 l 96 408 b 104 293 101 369 104 332 b 26 126 104 238 86 182 l 26 0 l 838 0 l 838 215 l 299 215 b 356 408 331 265 350 311 z "},"¥":{"ha":950,"x_min":0,"x_max":0,"o":"m 950 986 l 654 986 l 486 588 l 317 986 l 0 986 l 182 654 l 83 654 l 83 515 l 257 515 l 281 474 l 83 474 l 83 335 l 329 335 l 329 0 l 621 0 l 621 335 l 867 335 l 867 474 l 669 474 l 693 515 l 867 515 l 867 654 l 768 654 z "},"+":{"ha":889,"x_min":0,"x_max":0,"o":"m 819 585 l 533 585 l 533 876 l 356 876 l 356 585 l 69 585 l 69 418 l 356 418 l 356 126 l 533 126 l 533 418 l 819 418 z "},"−":{"ha":889,"x_min":0,"x_max":0,"o":"m 69 418 l 819 418 l 819 585 l 69 585 z "},"×":{"ha":703,"x_min":0,"x_max":0,"o":"m 146 178 l 351 383 l 557 178 l 675 296 l 469 501 l 675 707 l 557 825 l 351 619 l 146 825 l 28 707 l 233 501 l 28 296 z "},"÷":{"ha":889,"x_min":0,"x_max":0,"o":"m 340 668 l 549 668 l 549 869 l 340 869 z m 69 418 l 819 418 l 819 585 l 69 585 z m 340 133 l 549 133 l 549 335 l 340 335 z "},"=":{"ha":889,"x_min":0,"x_max":0,"o":"m 69 585 l 819 585 l 819 751 l 69 751 z m 69 238 l 819 238 l 819 404 l 69 404 z "},"≠":{"ha":889,"x_min":0,"x_max":0,"o":"m 819 585 l 819 751 l 685 751 l 771 900 l 632 981 l 500 751 l 69 751 l 69 585 l 403 585 l 299 404 l 69 404 l 69 238 l 203 238 l 118 90 l 257 10 l 389 238 l 819 238 l 819 404 l 485 404 l 589 585 z "},">":{"ha":736,"x_min":0,"x_max":0,"o":"m 42 889 l 42 689 l 474 497 l 42 304 l 42 97 l 701 431 l 701 556 z "},"<":{"ha":736,"x_min":0,"x_max":0,"o":"m 694 889 l 35 556 l 35 431 l 694 97 l 694 304 l 265 496 l 694 688 z "},"≥":{"ha":736,"x_min":0,"x_max":0,"o":"m 42 985 l 42 785 l 474 593 l 42 400 l 42 193 l 701 526 l 701 651 z m 42 0 l 701 0 l 701 153 l 42 153 z "},"≤":{"ha":736,"x_min":0,"x_max":0,"o":"m 694 985 l 35 651 l 35 526 l 694 193 l 694 400 l 265 592 l 694 783 z m 35 0 l 694 0 l 694 153 l 35 153 z "},"±":{"ha":889,"x_min":0,"x_max":0,"o":"m 526 751 l 526 904 l 363 904 l 363 751 l 69 751 l 69 585 l 363 585 l 363 432 l 526 432 l 526 585 l 819 585 l 819 751 z m 69 167 l 819 167 l 819 333 l 69 333 z "},"≈":{"ha":1025,"x_min":0,"x_max":0,"o":"m 69 522 l 215 522 b 336 686 229 621 264 686 b 693 522 450 686 503 522 b 956 843 850 522 956 650 l 813 843 b 700 679 800 744 769 679 b 343 843 588 679 533 843 b 69 522 179 843 69 715 z m 69 161 l 215 161 b 336 325 229 260 264 325 b 693 161 450 325 503 161 b 956 482 850 161 956 289 l 813 482 b 700 318 800 383 769 318 b 343 482 588 318 533 482 b 69 161 179 482 69 354 z "},"~":{"ha":1025,"x_min":0,"x_max":0,"o":"m 69 342 l 215 342 b 336 506 229 440 264 506 b 693 342 450 506 503 342 b 956 663 850 342 956 469 l 813 663 b 700 499 800 564 769 499 b 343 663 588 499 533 663 b 69 342 179 663 69 535 z "},"¬":{"ha":917,"x_min":0,"x_max":0,"o":"m 690 265 l 847 265 l 847 751 l 69 751 l 69 585 l 690 585 z "},"∞":{"ha":1072,"x_min":0,"x_max":0,"o":"m 801 744 b 1038 496 946 744 1038 649 b 801 247 1038 343 946 247 b 536 407 713 247 611 308 b 269 247 456 308 354 247 b 35 496 124 247 35 343 b 269 744 35 649 124 744 b 536 585 358 744 460 683 b 801 744 611 683 713 744 z m 275 389 b 424 496 319 389 376 429 b 275 603 381 563 324 603 b 189 496 222 603 189 563 b 275 389 189 429 222 389 z m 796 389 b 883 496 850 389 883 429 b 796 603 883 563 850 603 b 647 496 747 603 690 563 b 796 389 692 429 749 389 z "},"∫":{"ha":833,"x_min":0,"x_max":0,"o":"m 117 -228 b 456 92 297 -228 432 -111 l 536 764 b 674 939 551 889 589 939 b 803 913 707 939 765 928 l 803 1085 b 660 1111 772 1100 715 1111 b 335 778 465 1111 361 997 l 251 92 b 117 -56 240 -8 186 -56 b -28 -42 65 -56 8 -50 l -28 -215 b 117 -228 1 -222 60 -228 z "},"∏":{"ha":903,"x_min":0,"x_max":0,"o":"m 132 -208 l 326 -208 l 326 826 l 576 826 l 576 -208 l 771 -208 l 771 826 l 903 826 l 903 986 l 0 986 l 0 826 l 132 826 z "},"∑":{"ha":700,"x_min":0,"x_max":0,"o":"m 0 -208 l 686 -208 l 686 -49 l 250 -49 l 506 360 l 506 418 l 244 826 l 686 826 l 686 986 l 0 986 l 0 882 l 307 389 l 0 -104 z "},"√":{"ha":833,"x_min":0,"x_max":0,"o":"m 314 -28 l 529 -28 l 908 1111 l 725 1111 l 424 161 l 269 585 l 21 585 l 21 418 l 151 418 z "},"µ":{"ha":904,"x_min":0,"x_max":0,"o":"m 863 0 b 835 232 844 61 835 140 l 835 764 l 571 764 l 571 389 b 435 167 571 256 517 167 b 333 340 364 167 333 219 l 333 764 l 69 764 l 69 -278 l 306 -278 l 238 15 b 333 -14 267 -4 300 -14 b 585 178 458 -14 554 61 b 621 0 585 101 604 40 z "},"∂":{"ha":808,"x_min":0,"x_max":0,"o":"m 415 1014 b 136 964 313 1014 207 994 l 136 789 b 368 835 214 818 285 835 b 543 606 475 835 532 763 b 399 643 501 629 453 643 b 0 274 151 643 0 497 b 331 -28 0 82 119 -28 b 767 549 596 -28 767 218 b 415 1014 767 856 632 1014 z m 342 151 b 225 289 264 151 225 199 b 401 464 225 392 293 464 b 539 435 456 464 503 454 b 342 151 517 249 442 151 z "},"%":{"ha":1110,"x_min":0,"x_max":0,"o":"m 275 493 b 501 754 429 493 501 576 b 275 1014 501 931 429 1014 b 49 754 121 1014 49 931 b 275 493 49 576 121 493 z m 125 0 l 310 0 l 985 986 l 801 986 z m 275 651 b 208 754 228 651 208 678 b 275 857 208 831 228 857 b 343 754 324 857 343 831 b 275 651 343 678 324 651 z m 835 -28 b 1061 233 989 -28 1061 56 b 835 493 1061 410 989 493 b 608 233 681 493 608 410 b 835 -28 608 56 681 -28 z m 835 131 b 768 233 788 131 768 157 b 835 336 768 310 788 336 b 903 233 883 336 903 310 b 835 131 903 157 883 131 z "},"‰":{"ha":1596,"x_min":0,"x_max":0,"o":"m 275 493 b 501 754 429 493 501 576 b 275 1014 501 931 429 1014 b 49 754 121 1014 49 931 b 275 493 49 576 121 493 z m 125 0 l 310 0 l 985 986 l 801 986 z m 275 651 b 208 754 228 651 208 678 b 275 857 208 831 228 857 b 343 754 324 857 343 831 b 275 651 343 678 324 651 z m 835 -28 b 1061 233 989 -28 1061 56 b 835 493 1061 410 989 493 b 608 233 681 493 608 410 b 835 -28 608 56 681 -28 z m 1321 -28 b 1547 233 1475 -28 1547 56 b 1321 493 1547 410 1475 493 b 1094 233 1167 493 1094 410 b 1321 -28 1094 56 1167 -28 z m 835 131 b 768 233 788 131 768 157 b 835 336 768 310 788 336 b 903 233 883 336 903 310 b 835 131 903 157 883 131 z m 1321 131 b 1254 233 1274 131 1254 157 b 1321 336 1254 310 1274 336 b 1389 233 1369 336 1389 310 b 1321 131 1389 157 1369 131 z "},"◊":{"ha":782,"x_min":0,"x_max":0,"o":"m 468 1014 l 314 1014 l 14 457 l 314 -100 l 468 -100 l 768 457 z m 397 90 l 197 469 l 386 825 l 586 461 z "},"@":{"ha":1065,"x_min":0,"x_max":0,"o":"m 519 -156 b 933 -28 669 -156 799 -115 l 892 54 b 533 -33 765 -7 658 -33 b 153 346 260 -33 153 89 b 554 810 153 642 297 810 b 906 463 778 810 906 683 b 821 226 906 311 885 226 b 765 360 767 226 754 279 l 803 663 l 694 663 l 665 586 b 511 678 650 631 593 678 b 278 324 375 678 278 567 b 478 92 278 165 351 92 b 664 221 578 92 640 138 b 813 113 678 150 733 113 b 1044 463 964 113 1044 238 b 554 932 1044 763 867 932 b 14 346 210 932 14 721 b 519 -156 14 6 181 -156 z m 503 236 b 439 324 460 236 439 264 b 535 535 439 468 472 535 b 618 396 599 535 633 503 l 613 360 b 503 236 599 261 563 236 z "},"&":{"ha":931,"x_min":0,"x_max":0,"o":"m 958 0 l 794 188 b 886 557 854 285 886 410 l 651 557 b 629 376 651 488 644 428 l 472 557 b 364 744 393 650 364 699 b 428 828 364 804 383 828 b 499 701 472 828 499 781 l 761 701 b 432 1014 761 901 642 1014 b 100 756 222 1014 100 919 b 218 499 100 682 143 588 b 28 253 86 454 28 351 b 415 -26 28 63 171 -26 b 625 24 493 -26 564 -8 l 646 0 z m 415 181 b 285 294 346 181 285 215 b 315 385 285 329 296 361 l 482 192 b 415 181 461 185 439 181 z "},"¶":{"ha":960,"x_min":0,"x_max":0,"o":"m 14 664 b 321 339 14 471 163 340 l 321 -208 l 529 -208 l 529 806 l 654 806 l 654 -208 l 863 -208 l 863 986 l 365 986 b 14 664 154 986 14 857 z "},"§":{"ha":906,"x_min":0,"x_max":0,"o":"m 617 328 l 864 328 b 465 654 864 588 642 631 b 314 736 386 664 314 674 b 429 807 314 782 353 807 b 589 674 540 807 589 763 l 843 674 b 453 1014 843 899 710 1014 b 54 724 190 1014 54 911 b 382 454 54 519 226 479 b 617 328 506 438 617 429 z m 446 -278 b 864 26 721 -278 864 -167 b 467 340 864 265 681 311 b 300 451 404 349 300 358 l 54 451 b 426 125 54 214 238 147 b 611 25 528 113 611 111 b 468 -60 611 -43 563 -60 b 303 89 347 -60 303 -15 l 35 89 b 446 -278 35 -153 175 -278 z "},"©":{"ha":1122,"x_min":0,"x_max":0,"o":"m 561 -28 b 1074 493 868 -28 1074 181 b 561 1014 1074 806 868 1014 b 49 493 254 1014 49 806 b 561 -28 49 181 254 -28 z m 561 68 b 157 493 318 68 157 238 b 561 921 157 750 318 921 b 969 493 806 921 969 750 b 561 68 969 238 806 68 z m 572 186 b 838 407 722 186 814 261 l 658 407 b 575 322 647 349 625 322 b 461 489 497 322 461 372 b 575 656 461 606 497 656 b 658 581 615 656 651 633 l 835 581 b 563 792 810 719 725 792 b 283 489 386 792 283 689 b 572 186 283 289 386 186 z "},"®":{"ha":789,"x_min":0,"x_max":0,"o":"m 394 1014 b 21 632 171 1014 21 861 b 394 250 21 403 171 250 b 768 632 618 250 768 403 b 394 1014 768 861 618 1014 z m 394 346 b 129 632 235 346 129 460 b 394 921 129 806 235 921 b 664 632 556 921 664 806 b 394 346 664 460 556 346 z m 508 590 b 565 699 544 615 565 653 b 421 836 565 792 515 836 l 243 836 l 243 442 l 347 442 l 347 564 l 410 564 l 415 564 l 481 442 l 593 442 z m 347 750 l 407 750 b 460 699 444 750 460 736 b 407 643 460 658 444 643 l 347 643 z "},"™":{"ha":1024,"x_min":0,"x_max":0,"o":"m 118 544 l 242 544 l 242 890 l 360 890 l 360 986 l 0 986 l 0 890 l 118 890 z m 394 544 l 507 544 l 524 882 l 611 544 l 756 544 l 842 882 l 857 544 l 975 544 l 953 986 l 760 986 l 688 674 l 622 986 l 415 986 z "},"°":{"ha":486,"x_min":0,"x_max":0,"o":"m 243 558 b 458 781 372 558 458 647 b 243 1000 458 913 372 1000 b 28 781 114 1000 28 913 b 243 558 28 647 114 558 z m 243 686 b 172 781 197 686 172 719 b 243 872 172 839 197 872 b 314 781 289 872 314 839 b 243 686 314 719 289 686 z "},"|":{"ha":417,"x_min":0,"x_max":0,"o":"m 97 -278 l 319 -278 l 319 1111 l 97 1111 z "},"¦":{"ha":410,"x_min":0,"x_max":0,"o":"m 97 569 l 313 569 l 313 1111 l 97 1111 z m 97 -278 l 313 -278 l 313 292 l 97 292 z "},"†":{"ha":778,"x_min":0,"x_max":0,"o":"m 778 765 l 493 765 l 493 1111 l 285 1111 l 285 765 l 0 765 l 0 599 l 285 599 l 285 -236 l 493 -236 l 493 599 l 778 599 z "},"‡":{"ha":833,"x_min":0,"x_max":0,"o":"m 778 599 l 778 765 l 493 765 l 493 1111 l 285 1111 l 285 765 l 0 765 l 0 599 l 285 599 l 285 283 l 0 283 l 0 117 l 285 117 l 285 -236 l 493 -236 l 493 117 l 778 117 l 778 283 l 493 283 l 493 599 z "},"^":{"ha":739,"x_min":0,"x_max":0,"o":"m 14 467 l 203 467 l 369 833 l 538 467 l 725 467 l 457 1000 l 282 1000 z "},"̈":{"ha":0,"x_min":0,"x_max":0,"o":"m -694 879 l -458 879 l -458 1069 l -694 1069 z m -333 879 l -97 879 l -97 1069 l -333 1069 z "},"̇":{"ha":0,"x_min":0,"x_max":0,"o":"m -361 865 l -97 865 l -97 1083 l -361 1083 z "},"̀":{"ha":0,"x_min":0,"x_max":0,"o":"m -278 838 l -97 838 l -187 1083 l -410 1083 z "},"́":{"ha":0,"x_min":0,"x_max":0,"o":"m -410 838 l -229 838 l -97 1083 l -319 1083 z "},"̋":{"ha":0,"x_min":0,"x_max":0,"o":"m -632 838 l -479 838 l -361 1083 l -583 1083 z m -368 838 l -215 838 l -97 1083 l -319 1083 z "},"̂":{"ha":0,"x_min":0,"x_max":0,"o":"m -556 838 l -431 838 l -326 954 l -222 838 l -97 838 l -215 1083 l -437 1083 z "},"̌":{"ha":0,"x_min":0,"x_max":0,"o":"m -437 838 l -215 838 l -97 1083 l -222 1083 l -326 967 l -431 1083 l -556 1083 z "},"̆":{"ha":0,"x_min":0,"x_max":0,"o":"m -326 838 b -97 1083 -175 838 -97 921 l -243 1083 b -326 974 -243 1007 -268 974 b -410 1083 -385 974 -410 1007 l -556 1083 b -326 838 -556 921 -478 838 z "},"̊":{"ha":0,"x_min":0,"x_max":0,"o":"m -283 811 b -97 974 -167 811 -97 874 b -283 1135 -97 1074 -167 1135 b -471 974 -399 1135 -471 1074 b -283 811 -471 874 -399 811 z m -283 907 b -346 974 -322 907 -346 933 b -283 1040 -346 1015 -322 1040 b -222 974 -246 1040 -222 1015 b -283 907 -222 933 -246 907 z "},"̃":{"ha":0,"x_min":0,"x_max":0,"o":"m -593 865 b -522 925 -587 900 -557 925 b -275 872 -437 925 -369 872 b -90 1075 -165 872 -90 961 l -187 1075 b -256 1015 -193 1040 -221 1015 b -504 1068 -340 1015 -410 1068 b -690 865 -615 1068 -690 979 z "},"̄":{"ha":0,"x_min":0,"x_max":0,"o":"m -614 892 l -97 892 l -97 1036 l -614 1036 z "},"̒":{"ha":0,"x_min":0,"x_max":0,"o":"m -319 865 l -99 865 l -97 1053 l -174 1053 l -139 1221 l -236 1221 l -319 997 z "},"̦":{"ha":0,"x_min":0,"x_max":0,"o":"m -278 -421 l -181 -421 l -97 -197 l -97 -65 l -318 -65 l -319 -253 l -243 -253 z "},"̧":{"ha":0,"x_min":0,"x_max":0,"o":"m -233 -61 l -193 0 l -300 0 l -343 -117 l -324 -135 b -214 -181 -246 -137 -214 -158 b -260 -207 -214 -203 -233 -207 b -378 -169 -300 -207 -351 -192 l -408 -250 b -256 -300 -374 -283 -314 -300 b -97 -178 -175 -300 -97 -257 b -233 -61 -97 -118 -146 -75 z "},"̨":{"ha":0,"x_min":0,"x_max":0,"o":"m -240 -276 b -97 -222 -190 -276 -136 -258 l -97 -142 b -199 -169 -125 -158 -164 -169 b -274 -112 -239 -169 -274 -154 b -125 1 -274 -57 -214 -15 l -162 32 b -394 -144 -301 25 -394 -42 b -240 -276 -394 -231 -321 -276 z "},"̵":{"ha":0,"x_min":0,"x_max":0,"o":"m -653 350 l -97 350 l -97 494 l -653 494 z "},"̶":{"ha":0,"x_min":0,"x_max":0,"o":"m -1201 350 l -97 350 l -97 494 l -1201 494 z "},"̷":{"ha":0,"x_min":0,"x_max":0,"o":"m -722 213 l -97 454 l -97 614 l -722 372 z "},"̸":{"ha":0,"x_min":0,"x_max":0,"o":"m -957 -56 l -792 -56 l -97 1042 l -262 1042 z "},"´":{"ha":833,"x_min":0,"x_max":0,"o":"m 97 838 l 278 838 l 410 1083 l 188 1083 z "},"˘":{"ha":833,"x_min":0,"x_max":0,"o":"m 326 838 b 556 1083 478 838 556 921 l 410 1083 b 326 974 410 1007 385 974 b 243 1083 268 974 243 1007 l 97 1083 b 326 838 97 921 175 838 z "},"ˇ":{"ha":833,"x_min":0,"x_max":0,"o":"m 215 838 l 438 838 l 556 1083 l 431 1083 l 326 967 l 222 1083 l 97 1083 z "},"¸":{"ha":833,"x_min":0,"x_max":0,"o":"m 272 -61 l 313 0 l 206 0 l 163 -117 l 182 -135 b 292 -181 260 -137 292 -158 b 246 -207 292 -203 272 -207 b 128 -169 206 -207 154 -192 l 97 -250 b 250 -300 132 -283 192 -300 b 408 -178 331 -300 408 -257 b 272 -61 408 -118 360 -75 z "},"ˆ":{"ha":833,"x_min":0,"x_max":0,"o":"m 97 838 l 222 838 l 326 954 l 431 838 l 556 838 l 438 1083 l 215 1083 z "},"¨":{"ha":833,"x_min":0,"x_max":0,"o":"m 97 879 l 333 879 l 333 1069 l 97 1069 z m 458 879 l 694 879 l 694 1069 l 458 1069 z "},"˙":{"ha":833,"x_min":0,"x_max":0,"o":"m 97 865 l 361 865 l 361 1083 l 97 1083 z "},"`":{"ha":833,"x_min":0,"x_max":0,"o":"m 229 838 l 410 838 l 319 1083 l 97 1083 z "},"˝":{"ha":833,"x_min":0,"x_max":0,"o":"m 97 838 l 250 838 l 368 1083 l 146 1083 z m 361 838 l 514 838 l 632 1083 l 410 1083 z "},"¯":{"ha":833,"x_min":0,"x_max":0,"o":"m 97 892 l 614 892 l 614 1036 l 97 1036 z "},"˛":{"ha":833,"x_min":0,"x_max":0,"o":"m 251 -276 b 394 -222 301 -276 356 -258 l 394 -142 b 293 -169 367 -158 328 -169 b 218 -112 253 -169 218 -154 b 367 1 218 -57 278 -15 l 329 32 b 97 -144 190 25 97 -42 b 251 -276 97 -231 171 -276 z "},"˚":{"ha":833,"x_min":0,"x_max":0,"o":"m 285 811 b 471 974 401 811 471 874 b 285 1135 471 1074 401 1135 b 97 974 169 1135 97 1074 b 285 811 97 874 169 811 z m 285 907 b 222 974 246 907 222 933 b 285 1040 222 1015 246 1040 b 346 974 322 1040 346 1015 b 285 907 346 933 322 907 z "},"˜":{"ha":833,"x_min":0,"x_max":0,"o":"m 188 865 b 258 925 193 900 224 925 b 506 872 343 925 411 872 b 690 1075 615 872 690 961 l 593 1075 b 525 1015 588 1040 560 1015 b 276 1068 440 1015 371 1068 b 90 865 165 1068 90 979 z "}}}
